/* XPM */
static const char * arprename_xpm[] = {
"22 22 33 1",
" 	c None",
".	c #666666",
"+	c #FFFFFF",
"@	c #000000",
"#	c #2D6B2D",
"$	c #6F996F",
"%	c #608F60",
"&	c #84A884",
"*	c #98B698",
"=	c #206220",
"-	c #A7C1A7",
";	c #3F783F",
">	c #FCFCFC",
",	c #3D763D",
"'	c #4E824E",
")	c #FDFDFD",
"!	c #2E6C2E",
"~	c #719B71",
"{	c #467D46",
"]	c #C5D6C5",
"^	c #BACEBA",
"/	c #A1BDA1",
"(	c #A6C0A6",
"_	c #548654",
":	c #DEE7DE",
"<	c #3E773E",
"[	c #DFE8DF",
"}	c #4B804B",
"|	c #FEFEFE",
"1	c #7FA57F",
"2	c #A3BEA3",
"3	c #00C700",
"4	c #004C00",
"                      ",
"                      ",
"                      ",
"  ................    ",
"  .+++++++++++++++@   ",
"  .#$%&+#$$*+=-+;+@   ",
"  .;+>,+;++++,');+@   ",
"  .!~{]+#$$^+;/(;+@   ",
"  .;+_:+;++++;>'<+@   ",
"  .;+[}|#$$1+;+2=+@   ",
"  .+++++++++++++++@   ",
"  .+++++++++++++++@   ",
"  ..@@@@@@@@@@@@@@@   ",
"  .3333333333333333@  ",
"  .3444444444444444@  ",
"  .3444444444444444@  ",
"  .3444444444444444@  ",
"  .3444444444444444@  ",
"  .3444444444444444@  ",
"   @@@@@@@@@@@@@@@@@  ",
"                      ",
"                      "};
