/* XPM */
static const char * editmodeon_xpm[] = {
"22 22 12 1",
" 	c None",
".	c #666666",
"+	c #000000",
"@	c #999999",
"#	c #FF9999",
"$	c #FF6666",
"%	c #FFFF00",
"&	c #FFFFFF",
"*	c #999900",
"=	c #CCCC00",
"-	c #FFCC99",
";	c #FF9966",
"                      ",
"                      ",
"                      ",
"               ...    ",
"              +@#$.   ",
"             +%.$$+   ",
"            +%&*.+.   ",
"           +%&*=+.    ",
"          +%&*=+.     ",
"         +%&*=+.      ",
"        +%&*=+.       ",
"       +%&*=+.        ",
"      .%&*=+.         ",
"      +&*=+.          ",
"     .-.=+.           ",
"     .-;..            ",
"     +..              ",
"    .                 ",
"                      ",
"                      ",
"                      ",
"                      "};
