/* XPM */
static const char * eventlog_xpm[] = {
"22 22 160 2",
"   c None",
".  c #0C2C7C",
"+  c #0A2A7B",
"@  c #0B2B7B",
"#  c #0B2B7C",
"$  c #0B2C7C",
"%  c #0C2C7B",
"&  c #5266A2",
"*  c #A8AED2",
"=  c #9FA6CD",
"-  c #919CC9",
";  c #828FC2",
">  c #7E8BBF",
",  c #7987BD",
"'  c #7382BB",
")  c #6878B6",
"!  c #5D70B1",
"~  c #586BAF",
"{  c #5166AC",
"]  c #4E63AB",
"^  c #2A458D",
"/  c #0A2361",
"(  c #A6ADD1",
"_  c #B0B3D6",
":  c #A0A8D0",
"<  c #8F99C9",
"[  c #8A94C5",
"}  c #8490C3",
"|  c #7F8CC0",
"1  c #7885BE",
"2  c #697AB8",
"3  c #6274B5",
"4  c #5B6EB1",
"5  c #5469AE",
"6  c #5065AD",
"7  c #314B92",
"8  c #0A2360",
"9  c #C0C5DE",
"0  c #D1D4E7",
"a  c #CED1E6",
"b  c #C9CDE4",
"c  c #BCC2DE",
"d  c #B9C0DD",
"e  c #B6BDDB",
"f  c #B2BBDA",
"g  c #AFB7D8",
"h  c #A3ADD3",
"i  c #9FAAD1",
"j  c #9BA7CF",
"k  c #99A4CF",
"l  c #7888B5",
"m  c #0E255E",
"n  c #E8EBF2",
"o  c #FFFFFF",
"p  c #FFFEFE",
"q  c #FDFDFD",
"r  c #FBFBFC",
"s  c #FAFAFC",
"t  c #DBDCE5",
"u  c #11285F",
"v  c #E6E9F1",
"w  c #FEFEFE",
"x  c #F8F8FB",
"y  c #F6F6F9",
"z  c #F5F5F8",
"A  c #F4F4F8",
"B  c #D3D4E0",
"C  c #11265C",
"D  c #FEFEFF",
"E  c #FBFBFD",
"F  c #F6F6FA",
"G  c #F4F4F9",
"H  c #F3F3F8",
"I  c #F2F2F8",
"J  c #D1D2DD",
"K  c #10255B",
"L  c #FFFFFE",
"M  c #FDFDFE",
"N  c #F5F5F9",
"O  c #F1F1F7",
"P  c #CECFDB",
"Q  c #102558",
"R  c #F9F9FC",
"S  c #F1F1F6",
"T  c #F0F0F6",
"U  c #EFEFF6",
"V  c #CBCBD8",
"W  c #102456",
"X  c #FAFAFB",
"Y  c #F2F2F7",
"Z  c #EEEEF5",
"`  c #EEEEF4",
" . c #C8C8D6",
".. c #102354",
"+. c #F9F9FB",
"@. c #F8F8FA",
"#. c #ECECF3",
"$. c #ECECF4",
"%. c #C5C5D4",
"&. c #0F2252",
"*. c #EFEFF5",
"=. c #EBEBF3",
"-. c #EAEAF2",
";. c #C2C3D1",
">. c #0F214F",
",. c #EBEBF2",
"'. c #E9E9F2",
"). c #BFBFCF",
"!. c #0F204D",
"~. c #F7F7FB",
"{. c #F3F3F7",
"]. c #E9E9F1",
"^. c #E7E7F0",
"/. c #E7E7F1",
"(. c #BFBFCE",
"_. c #0F1F4A",
":. c #EDEDF4",
"<. c #E6E6F0",
"[. c #E5E6EF",
"}. c #BEBECE",
"|. c #0E1E49",
"1. c #E8E8F0",
"2. c #E6E6EF",
"3. c #E4E4EE",
"4. c #E3E4EF",
"5. c #0E1E47",
"6. c #FCFCFD",
"7. c #E3E3EE",
"8. c #E2E2ED",
"9. c #0E1D44",
"0. c #E8EAF0",
"a. c #FEFDFC",
"b. c #FCFAFA",
"c. c #FAF9F9",
"d. c #EEECF1",
"e. c #EDEBF0",
"f. c #EAE8EE",
"g. c #E8E6ED",
"h. c #E5E3EA",
"i. c #E0DEE7",
"j. c #DEDDE7",
"k. c #DDDCE6",
"l. c #DDDBE7",
"m. c #C2C1CF",
"n. c #0E1D43",
"o. c #425996",
"p. c #465D98",
"q. c #465C97",
"r. c #455B96",
"s. c #445A93",
"t. c #435993",
"u. c #425790",
"v. c #40558C",
"w. c #3F5388",
"x. c #3B4B7A",
"y. c #3A4A77",
"z. c #3C4B75",
"A. c #3C4A71",
"B. c #39466C",
"C. c #07163A",
"                                            ",
"        . + + + @ @ @ @ @ # # $ $ %         ",
"        & * = - ; > , ' ) ! ~ { ] ^ /       ",
"        ( _ : < [ } | 1 2 3 4 5 6 7 8       ",
"        9 0 a b c d e f g h i j k l m       ",
"        n o o o o o o o o p q r s t u       ",
"        v o o o o o o o w x y z A B C       ",
"        v o o o o o D D E F G H I J K       ",
"        v o o o o L D M s N H O O P Q       ",
"        v o o o w D M r R A S T U V W       ",
"        v o o o o M E X x Y T Z `  ...      ",
"        v o o o M r +.@.z T ` #.$.%.&.      ",
"        v o o o r +.x y A *.#.=.-.;.>.      ",
"        v o o o R @.F N Y ` ,.'.'.).!.      ",
"        v o o o ~.y N {.T #.].^./.(._.      ",
"        v o w o y N H S :.-.^.<.[.}.|.      ",
"        v w o w A {.S *.,.1.2.3.4.}.5.      ",
"        v o q 6.{.S T ` -.<.3.7.8.}.9.      ",
"        0.a.b.c.d.e.f.g.h.i.j.k.l.m.n.      ",
"        o.p.q.r.s.t.u.v.w.x.y.z.A.B.C.      ",
"                                            ",
"                                            "};
