/* XPM */
static const char * filesaveas_xpm[] = {
"22 22 251 2",
"   c None",
".  c #005800",
"+  c #005C00",
"@  c #000C00",
"#  c #B4B4B4",
"$  c #DBDBDB",
"%  c #DADADA",
"&  c #D9D9D9",
"*  c #D8D8D8",
"=  c #D7D7D7",
"-  c #D6D6D6",
";  c #D5D5D5",
">  c #D4D4D4",
",  c #D3D3D3",
"'  c #D2D2D2",
")  c #A1A1A1",
"!  c #1C1C1C",
"~  c #9D9D9D",
"{  c #8E8E8E",
"]  c #000000",
"^  c #005E00",
"/  c #006200",
"(  c #000D00",
"_  c #BEBEBE",
":  c #E8E8E8",
"<  c #E7E7E7",
"[  c #E6E6E6",
"}  c #E5E5E5",
"|  c #E4E4E4",
"1  c #E3E3E3",
"2  c #E2E2E2",
"3  c #E1E1E1",
"4  c #E0E0E0",
"5  c #DFDFDF",
"6  c #DEDEDE",
"7  c #ABABAB",
"8  c #1E1E1E",
"9  c #A6A6A6",
"0  c #969696",
"a  c #005F00",
"b  c #006300",
"c  c #C0C0C0",
"d  c #EAEAEA",
"e  c #353535",
"f  c #ACACAC",
"g  c #040404",
"h  c #161616",
"i  c #141414",
"j  c #006000",
"k  c #006400",
"l  c #C2C2C2",
"m  c #EDEDED",
"n  c #ECECEC",
"o  c #EBEBEB",
"p  c #E9E9E9",
"q  c #AEAEAE",
"r  c #000E00",
"s  c #004C00",
"t  c #004500",
"u  c #006100",
"v  c #006500",
"w  c #C5C5C5",
"x  c #F0F0F0",
"y  c #B0B0B0",
"z  c #001100",
"A  c #005500",
"B  c #006600",
"C  c #C7C7C7",
"D  c #F2F2F2",
"E  c #F1F1F1",
"F  c #EFEFEF",
"G  c #EEEEEE",
"H  c #B1B1B1",
"I  c #005600",
"J  c #006800",
"K  c #C9C9C9",
"L  c #F5F5F5",
"M  c #B3B3B3",
"N  c #005700",
"O  c #006900",
"P  c #CCCCCC",
"Q  c #F8F8F8",
"R  c #F7F7F7",
"S  c #F6F6F6",
"T  c #F4F4F4",
"U  c #F3F3F3",
"V  c #B5B5B5",
"W  c #006A00",
"X  c #CECECE",
"Y  c #FBFBFB",
"Z  c #B7B7B7",
"`  c #006700",
" . c #006C00",
".. c #004100",
"+. c #5F695F",
"@. c #747474",
"#. c #737373",
"$. c #727272",
"%. c #717171",
"&. c #707070",
"*. c #6F6F6F",
"=. c #6E6E6E",
"-. c #6D6D6D",
";. c #546054",
">. c #003E00",
",. c #005900",
"'. c #006D00",
"). c #6A746A",
"!. c #818181",
"~. c #808080",
"{. c #7F7F7F",
"]. c #7E7E7E",
"^. c #7D7D7D",
"/. c #7C7C7C",
"(. c #7B7B7B",
"_. c #7A7A7A",
":. c #797979",
"<. c #5D685D",
"[. c #003B00",
"}. c #005A00",
"|. c #006F00",
"1. c #016F01",
"2. c #013E01",
"3. c #023402",
"4. c #033403",
"5. c #023302",
"6. c #023202",
"7. c #013101",
"8. c #003000",
"9. c #002F00",
"0. c #002E00",
"a. c #005B00",
"b. c #017101",
"c. c #027202",
"d. c #037203",
"e. c #047304",
"f. c #067406",
"g. c #077407",
"h. c #067306",
"i. c #057105",
"j. c #036F03",
"k. c #026D02",
"l. c #016B01",
"m. c #016E01",
"n. c #037403",
"o. c #047504",
"p. c #065506",
"q. c #095009",
"r. c #0B520B",
"s. c #0C530C",
"t. c #0C520C",
"u. c #0B510B",
"v. c #094E09",
"w. c #064B06",
"x. c #044804",
"y. c #024602",
"z. c #014501",
"A. c #004400",
"B. c #004300",
"C. c #004200",
"D. c #004900",
"E. c #005D00",
"F. c #037103",
"G. c #057805",
"H. c #087B08",
"I. c #0C200C",
"J. c #0F0F0F",
"K. c #131313",
"L. c #121212",
"M. c #0E0E0E",
"N. c #090909",
"O. c #060606",
"P. c #030303",
"Q. c #181818",
"R. c #3E3E3E",
"S. c #3D3D3D",
"T. c #2F2F2F",
"U. c #001300",
"V. c #067506",
"W. c #097E09",
"X. c #0E820E",
"Y. c #142914",
"Z. c #1A1A1A",
"`. c #202020",
" + c #1F1F1F",
".+ c #0D0D0D",
"++ c #080808",
"@+ c #494949",
"#+ c #C4C4C4",
"$+ c #959595",
"%+ c #0A7B0A",
"&+ c #0F860F",
"*+ c #178C17",
"=+ c #1F351F",
"-+ c #282828",
";+ c #2D2D2D",
">+ c #2C2C2C",
",+ c #242424",
"'+ c #1B1B1B",
")+ c #0B0B0B",
"!+ c #4B4B4B",
"~+ c #C6C6C6",
"{+ c #108310",
"]+ c #189018",
"^+ c #239B23",
"/+ c #2F452F",
"(+ c #3A3A3A",
"_+ c #404040",
":+ c #414141",
"<+ c #222222",
"[+ c #070707",
"}+ c #4C4C4C",
"|+ c #989898",
"1+ c #006B00",
"2+ c #198D19",
"3+ c #259F25",
"4+ c #34AD34",
"5+ c #435943",
"6+ c #505050",
"7+ c #565656",
"8+ c #545454",
"9+ c #393939",
"0+ c #4D4D4D",
"a+ c #CBCBCB",
"b+ c #9A9A9A",
"c+ c #001400",
"d+ c #259025",
"e+ c #36A636",
"f+ c #49B849",
"g+ c #5C705C",
"h+ c #696969",
"i+ c #676767",
"j+ c #575757",
"k+ c #424242",
"l+ c #2E2E2E",
"m+ c #101010",
"n+ c #484848",
"o+ c #BBBBBB",
"p+ c #B9B9B9",
"q+ c #8D8D8D",
"r+ c #001200",
"s+ c #343434",
"t+ c #4A4A4A",
"u+ c #626262",
"v+ c #777777",
"w+ c #838383",
"x+ c #848484",
"y+ c #787878",
"z+ c #636363",
"A+ c #313131",
"B+ c #010101",
"                                            ",
"  . + @ # $ % & & * = - ; ; > , ' ) ! ~ { ] ",
"  ^ / ( _ : < [ } } | 1 2 3 4 5 6 7 8 9 0 ] ",
"  a b ( c d e e e e e e e e e e e f g h i ] ",
"  j k ( l m n o d p : < [ } | 1 2 q r s t ] ",
"  u v ( w x e e e e e e e : < [ | y z ^ A ] ",
"  / B ( C D E x F G m n o d p : < H z a I ] ",
"  b J r K L e e e e e e e e e d p M z j N ] ",
"  k O r P Q R S L T U D x F G m o V z u N ] ",
"  B W r X Y : : : : : : : : : : : Z z / . ] ",
"  `  ...+.@.#.#.$.$.%.&.&.*.=.=.-.;.>.b ,.] ",
"  J '.>.).!.!.!.~.~.{.].^./.(._.:.<.[.k }.] ",
"  W |.1.2.3.4.4.4.4.5.6.7.8.9.9.0.[.v v a.] ",
"   .b.c.d.e.f.g.g.h.i.j.k.l.W O J ` B B + ] ",
"  m.n.o.p.q.r.s.t.u.v.w.x.y.z.A.B.C.D.` E.] ",
"  F.G.H.I.J.K.i i L.M.N.O.P.Q.R.S.T.U.J ^ ] ",
"  V.W.X.Y.Z.8 `. +Z.i .+++g @+#+l $+U.O a ] ",
"  %+&+*+=+-+;+T.>+,+'+L.)+O.!+~+#+0 U.W j ] ",
"  {+]+^+/+(+_+:+(+T.<+h .+[+}+K C |+U.1+u ] ",
"  2+3+4+5+6+7+8+@+9+-+Z.J.++0+a+K b+c+ ./ ] ",
"  d+e+f+g+h+-.i+j+k+l+! m+++n+o+p+q+r+b }.] ",
"  s+t+u+v+w+x+y+z+@+A+8 m+++g B+] ] ] ] ]   "};
