/* XPM */
static const char * fileopen_xpm[] = {
"22 22 174 2",
"   c None",
".  c #000000",
"+  c #878787",
"@  c #868686",
"#  c #212121",
"$  c #C8C8C8",
"%  c #8C8C8C",
"&  c #7F7F7F",
"*  c #7E7E7E",
"=  c #7D7D7D",
"-  c #7C7C7C",
";  c #4E4E4E",
">  c #CBCBCB",
",  c #CACACA",
"'  c #C9C9C9",
")  c #C7C7C7",
"!  c #C6C6C6",
"~  c #C5C5C5",
"{  c #CDCDCD",
"]  c #CCCCCC",
"^  c #D0D0D0",
"/  c #CFCFCF",
"(  c #CECECE",
"_  c #808080",
":  c #D3D3D3",
"<  c #D2D2D2",
"[  c #D1D1D1",
"}  c #737373",
"|  c #747474",
"1  c #757575",
"2  c #727272",
"3  c #707070",
"4  c #474747",
"5  c #D5D5D5",
"6  c #919191",
"7  c #232323",
"8  c #032503",
"9  c #073807",
"0  c #0A3B0A",
"a  c #0B3C0B",
"b  c #083908",
"c  c #043504",
"d  c #023202",
"e  c #003100",
"f  c #003000",
"g  c #002F00",
"h  c #002A00",
"i  c #D8D8D8",
"j  c #989898",
"k  c #202020",
"l  c #042404",
"m  c #096B09",
"n  c #108A10",
"o  c #179117",
"p  c #189118",
"q  c #118B11",
"r  c #098209",
"s  c #037C03",
"t  c #017801",
"u  c #007700",
"v  c #007600",
"w  c #007500",
"x  c #006E00",
"y  c #004300",
"z  c #DBDBDB",
"A  c #9F9F9F",
"B  c #1C1C1C",
"C  c #032203",
"D  c #086E08",
"E  c #128F12",
"F  c #209C20",
"G  c #2AA62A",
"H  c #2AA52A",
"I  c #1E981E",
"J  c #0F890F",
"K  c #067F06",
"L  c #027B02",
"M  c #007800",
"N  c #006F00",
"O  c #004500",
"P  c #DEDEDE",
"Q  c #A7A7A7",
"R  c #161616",
"S  c #021F02",
"T  c #077007",
"U  c #108F10",
"V  c #219F21",
"W  c #36B336",
"X  c #43C043",
"Y  c #3FBB3F",
"Z  c #2BA72B",
"`  c #159115",
" . c #088308",
".. c #027D02",
"+. c #007A00",
"@. c #007900",
"#. c #007100",
"$. c #004700",
"%. c #B1B1B1",
"&. c #101010",
"*. c #011B01",
"=. c #057305",
"-. c #0C8D0C",
";. c #1C9C1C",
">. c #35B535",
",. c #51D051",
"'. c #5EDD5E",
"). c #53D153",
"!. c #36B436",
"~. c #1B981B",
"{. c #0A870A",
"]. c #037F03",
"^. c #007C00",
"/. c #007300",
"(. c #004800",
"_. c #080808",
":. c #011601",
"<. c #037703",
"[. c #088B08",
"}. c #159715",
"|. c #2CAE2C",
"1. c #4DCE4D",
"2. c #6DEE6D",
"3. c #77F777",
"4. c #63E263",
"5. c #3EBD3E",
"6. c #1E9D1E",
"7. c #0B8A0B",
"8. c #038103",
"9. c #017601",
"0. c #004A00",
"a. c #001200",
"b. c #027C02",
"c. c #058A05",
"d. c #0E920E",
"e. c #20A420",
"f. c #3FC33F",
"g. c #67EA67",
"h. c #87FF87",
"i. c #8AFF8A",
"j. c #6DEF6D",
"k. c #42C342",
"l. c #20A020",
"m. c #0C8C0C",
"n. c #047D04",
"o. c #014B01",
"p. c #037E03",
"q. c #098309",
"r. c #169016",
"s. c #2EA82E",
"t. c #55CE55",
"u. c #80F980",
"v. c #9DFF9D",
"w. c #97FF97",
"x. c #72E972",
"y. c #43BA43",
"z. c #209620",
"A. c #0C820C",
"B. c #044E04",
"C. c #010101",
"D. c #020202",
"E. c #050505",
"F. c #0E0E0E",
"G. c #1F1F1F",
"H. c #3F3F3F",
"I. c #6B6B6B",
"J. c #979797",
"K. c #ADADAD",
"L. c #9E9E9E",
"M. c #717171",
"N. c #414141",
"O. c #1E1E1E",
"P. c #0C0C0C",
"Q. c #040404",
"                                            ",
"                                            ",
"                          . . . .         . ",
"                        .         . .   . . ",
"                                      . . . ",
"                                    . . . . ",
"  . . .                           . . . . . ",
". + + @ # . . . . . . . . . .               ",
". $ $ $ % & * * * = = = - - ; .             ",
". > > , , , ' ' $ $ ) ) ! ~ = .             ",
". { { { ] ] ] > > , , ' $ $ * .             ",
". ^ ^ / / / ( ( ( ( { ] > , _ .             ",
". : < < < [ % } | 1 1 | 2 3 4 .             ",
". 5 5 5 5 6 7 8 9 0 a b c d e f g g g g h . ",
". i i i j k l m n o p q r s t u v w w x y . ",
". z z A B C D E F G H I J K L M M u N O . . ",
". P Q R S T U V W X Y Z `  ...+.@.#.$.. .   ",
". %.&.*.=.-.;.>.,.'.).!.~.{.].^./.(.. .     ",
". _.:.<.[.}.|.1.2.3.4.5.6.7.8.9.0.. .       ",
". a.b.c.d.e.f.g.h.i.j.k.l.m.n.o.. .         ",
". 9.p.q.r.s.t.u.v.w.x.y.z.A.B.C..           ",
". D.E.F.G.H.I.J.K.L.M.N.O.P.Q.C.            "};
