/* XPM */
static const char * filesave_xpm[] = {
"22 22 252 2",
"   c None",
".  c #005800",
"+  c #005C00",
"@  c #000C00",
"#  c #B4B4B4",
"$  c #DBDBDB",
"%  c #DADADA",
"&  c #D9D9D9",
"*  c #D8D8D8",
"=  c #D7D7D7",
"-  c #D6D6D6",
";  c #D5D5D5",
">  c #D4D4D4",
",  c #D3D3D3",
"'  c #D2D2D2",
")  c #A1A1A1",
"!  c #1C1C1C",
"~  c #9D9D9D",
"{  c #8E8E8E",
"]  c #000000",
"^  c #005E00",
"/  c #006200",
"(  c #000D00",
"_  c #BEBEBE",
":  c #E8E8E8",
"<  c #E7E7E7",
"[  c #E6E6E6",
"}  c #E5E5E5",
"|  c #E4E4E4",
"1  c #E3E3E3",
"2  c #E2E2E2",
"3  c #E1E1E1",
"4  c #E0E0E0",
"5  c #DFDFDF",
"6  c #DEDEDE",
"7  c #ABABAB",
"8  c #1E1E1E",
"9  c #A6A6A6",
"0  c #969696",
"a  c #005F00",
"b  c #006300",
"c  c #C0C0C0",
"d  c #EAEAEA",
"e  c #E9E9E9",
"f  c #ACACAC",
"g  c #040404",
"h  c #161616",
"i  c #141414",
"j  c #006000",
"k  c #006400",
"l  c #C2C2C2",
"m  c #EDEDED",
"n  c #ECECEC",
"o  c #EBEBEB",
"p  c #AEAEAE",
"q  c #000E00",
"r  c #004C00",
"s  c #004500",
"t  c #006100",
"u  c #006500",
"v  c #C5C5C5",
"w  c #F0F0F0",
"x  c #EFEFEF",
"y  c #EEEEEE",
"z  c #B0B0B0",
"A  c #001100",
"B  c #005500",
"C  c #006600",
"D  c #C7C7C7",
"E  c #F2F2F2",
"F  c #F1F1F1",
"G  c #B1B1B1",
"H  c #005600",
"I  c #006800",
"J  c #C9C9C9",
"K  c #F5F5F5",
"L  c #F4F4F4",
"M  c #F3F3F3",
"N  c #B3B3B3",
"O  c #005700",
"P  c #006900",
"Q  c #CCCCCC",
"R  c #F8F8F8",
"S  c #F7F7F7",
"T  c #F6F6F6",
"U  c #B5B5B5",
"V  c #006A00",
"W  c #CECECE",
"X  c #FBFBFB",
"Y  c #FAFAFA",
"Z  c #F9F9F9",
"`  c #B7B7B7",
" . c #006700",
".. c #006C00",
"+. c #004100",
"@. c #5F695F",
"#. c #747474",
"$. c #737373",
"%. c #727272",
"&. c #717171",
"*. c #707070",
"=. c #6F6F6F",
"-. c #6E6E6E",
";. c #6D6D6D",
">. c #546054",
",. c #003E00",
"'. c #005900",
"). c #006D00",
"!. c #6A746A",
"~. c #818181",
"{. c #808080",
"]. c #7F7F7F",
"^. c #7E7E7E",
"/. c #7D7D7D",
"(. c #7C7C7C",
"_. c #7B7B7B",
":. c #7A7A7A",
"<. c #797979",
"[. c #5D685D",
"}. c #003B00",
"|. c #005A00",
"1. c #006F00",
"2. c #016F01",
"3. c #013E01",
"4. c #023402",
"5. c #033403",
"6. c #023302",
"7. c #023202",
"8. c #013101",
"9. c #003000",
"0. c #002F00",
"a. c #002E00",
"b. c #005B00",
"c. c #017101",
"d. c #027202",
"e. c #037203",
"f. c #047304",
"g. c #067406",
"h. c #077407",
"i. c #067306",
"j. c #057105",
"k. c #036F03",
"l. c #026D02",
"m. c #016B01",
"n. c #016E01",
"o. c #037403",
"p. c #047504",
"q. c #065506",
"r. c #095009",
"s. c #0B520B",
"t. c #0C530C",
"u. c #0C520C",
"v. c #0B510B",
"w. c #094E09",
"x. c #064B06",
"y. c #044804",
"z. c #024602",
"A. c #014501",
"B. c #004400",
"C. c #004300",
"D. c #004200",
"E. c #004900",
"F. c #005D00",
"G. c #037103",
"H. c #057805",
"I. c #087B08",
"J. c #0C200C",
"K. c #0F0F0F",
"L. c #131313",
"M. c #121212",
"N. c #0E0E0E",
"O. c #090909",
"P. c #060606",
"Q. c #030303",
"R. c #181818",
"S. c #3E3E3E",
"T. c #3D3D3D",
"U. c #2F2F2F",
"V. c #001300",
"W. c #067506",
"X. c #097E09",
"Y. c #0E820E",
"Z. c #142914",
"`. c #1A1A1A",
" + c #202020",
".+ c #1F1F1F",
"++ c #0D0D0D",
"@+ c #080808",
"#+ c #494949",
"$+ c #C4C4C4",
"%+ c #959595",
"&+ c #0A7B0A",
"*+ c #0F860F",
"=+ c #178C17",
"-+ c #1F351F",
";+ c #282828",
">+ c #2D2D2D",
",+ c #2C2C2C",
"'+ c #242424",
")+ c #1B1B1B",
"!+ c #0B0B0B",
"~+ c #4B4B4B",
"{+ c #C6C6C6",
"]+ c #108310",
"^+ c #189018",
"/+ c #239B23",
"(+ c #2F452F",
"_+ c #3A3A3A",
":+ c #404040",
"<+ c #414141",
"[+ c #222222",
"}+ c #070707",
"|+ c #4C4C4C",
"1+ c #989898",
"2+ c #006B00",
"3+ c #198D19",
"4+ c #259F25",
"5+ c #34AD34",
"6+ c #435943",
"7+ c #505050",
"8+ c #565656",
"9+ c #545454",
"0+ c #393939",
"a+ c #4D4D4D",
"b+ c #CBCBCB",
"c+ c #9A9A9A",
"d+ c #001400",
"e+ c #259025",
"f+ c #36A636",
"g+ c #49B849",
"h+ c #5C705C",
"i+ c #696969",
"j+ c #676767",
"k+ c #575757",
"l+ c #424242",
"m+ c #2E2E2E",
"n+ c #101010",
"o+ c #484848",
"p+ c #BBBBBB",
"q+ c #B9B9B9",
"r+ c #8D8D8D",
"s+ c #001200",
"t+ c #343434",
"u+ c #4A4A4A",
"v+ c #626262",
"w+ c #777777",
"x+ c #838383",
"y+ c #848484",
"z+ c #787878",
"A+ c #636363",
"B+ c #313131",
"C+ c #010101",
"                                            ",
"  . + @ # $ % & & * = - ; ; > , ' ) ! ~ { ] ",
"  ^ / ( _ : < [ } } | 1 2 3 4 5 6 7 8 9 0 ] ",
"  a b ( c d d e : < [ } | 1 2 3 4 f g h i ] ",
"  j k ( l m n o d e : < [ } | 1 2 p q r s ] ",
"  t u ( v w x y m n o d e : < [ | z A ^ B ] ",
"  / C ( D E F w x y m n o d e : < G A a H ] ",
"  b I q J K L M E F w x y m o d e N A j O ] ",
"  k P q Q R S T K L M E w x y m o U A t O ] ",
"  C V q W X Y Z R S T L M E w x y ` A / . ] ",
"   ...+.@.#.$.$.%.%.&.*.*.=.-.-.;.>.,.b '.] ",
"  I ).,.!.~.~.~.{.{.].^./.(._.:.<.[.}.k |.] ",
"  V 1.2.3.4.5.5.5.5.6.7.8.9.0.0.a.}.u u b.] ",
"  ..c.d.e.f.g.h.h.i.j.k.l.m.V P I  .C C + ] ",
"  n.o.p.q.r.s.t.u.v.w.x.y.z.A.B.C.D.E. .F.] ",
"  G.H.I.J.K.L.i i M.N.O.P.Q.R.S.T.U.V.I ^ ] ",
"  W.X.Y.Z.`.8  +.+`.i ++@+g #+$+l %+V.P a ] ",
"  &+*+=+-+;+>+U.,+'+)+M.!+P.~+{+$+0 V.V j ] ",
"  ]+^+/+(+_+:+<+_+U.[+h ++}+|+J D 1+V.2+t ] ",
"  3+4+5+6+7+8+9+#+0+;+`.K.@+a+b+J c+d+../ ] ",
"  e+f+g+h+i+;.j+k+l+m+! n+@+o+p+q+r+s+b |.] ",
"  t+u+v+w+x+y+z+A+#+B+8 n+@+g C+] ] ] ] ]   "};
