/* XPM */
static const char * filequit_xpm[] = {
"16 16 80 1",
" 	c None",
".	c #A40000",
"+	c #A80202",
"@	c #A30000",
"#	c #A60101",
"$	c #A70202",
"%	c #B00808",
"&	c #EF3F3F",
"*	c #DD3838",
"=	c #A70303",
"-	c #AB0808",
";	c #E44949",
">	c #EF4444",
",	c #AB0404",
"'	c #AB0505",
")	c #E92C2C",
"!	c #F03434",
"~	c #E35757",
"{	c #A70404",
"]	c #AD0D0D",
"^	c #EA6D6D",
"/	c #F03636",
"(	c #E52929",
"_	c #B00606",
":	c #E82525",
"<	c #F03B3B",
"[	c #E97676",
"}	c #A90606",
"|	c #AE1212",
"1	c #EF8F8F",
"2	c #E42323",
"3	c #AC0404",
"4	c #F14040",
"5	c #ED8C8C",
"6	c #A90808",
"7	c #B01414",
"8	c #F2A4A4",
"9	c #E32323",
"0	c #AF0606",
"a	c #E72525",
"b	c #F13F3F",
"c	c #ED8585",
"d	c #EF8989",
"e	c #F03737",
"f	c #AE0606",
"g	c #E82424",
"h	c #F03939",
"i	c #F03131",
"j	c #AA0303",
"k	c #E62323",
"l	c #F12A2A",
"m	c #F22B2B",
"n	c #E12222",
"o	c #E62525",
"p	c #F42D2D",
"q	c #E72626",
"r	c #EB2828",
"s	c #F52E2E",
"t	c #E22323",
"u	c #E82626",
"v	c #F62F2F",
"w	c #E82727",
"x	c #ED2A2A",
"y	c #F73030",
"z	c #E32424",
"A	c #F72F2F",
"B	c #EA2828",
"C	c #EF2C2C",
"D	c #F83131",
"E	c #E42424",
"F	c #A60202",
"G	c #F62E2E",
"H	c #EF2B2B",
"I	c #F83030",
"J	c #B20707",
"K	c #F32C2C",
"L	c #AB0303",
"M	c #AD0505",
"N	c #ED2929",
"O	c #B20808",
"                ",
" .+@        #$. ",
" %&*=      -;>, ",
" ')!~{    ]^/(# ",
"  _:<[}  |1<23  ",
"   _:45678<9,   ",
"    0abcde2,    ",
"     fghi9,     ",
"     jklmn$     ",
"    ,opqrst+    ",
"   ,uvw,0xyz+   ",
"  ,uAB,  fCDE+  ",
" FaGw,    0HIz# ",
" JKqL      MNpM ",
" .O+        +0. ",
"                "};
