/* XPM */
static const char * formsave_xpm[] = {
"16 16 6 1",
" 	c None",
".	c #808080",
"+	c #848400",
"@	c #4D4D4D",
"#	c #C6C6C6",
"$	c #000000",
"                ",
" .............. ",
" .+@########@#$ ",
" .+@########@@$ ",
" .+@########@+$ ",
" .+@########@+$ ",
" .+@########@+$ ",
" .+@########@+$ ",
" .++@@@@@@@@++$ ",
" .++++++++++++$ ",
" .++@@@@@@@@@+$ ",
" .++@@@@@@##@+$ ",
" .++@@@@@@##@+$ ",
" .++@@@@@@##@+$ ",
"  $$$$$$$$$$$$$ ",
"                "};
