/* XPM */
static const char * globtog_xpm[] = {
"22 22 56 1",
"   c None",
".  c #5050C4",
"+  c #0C2C7C",
"@  c #465D98",
"#  c #E4E4EE",
"$  c #0A2A7B",
"%  c #465C97",
"&  c #455B96",
"*  c #445A93",
"=  c #0B2B7B",
"-  c #435993",
";  c #425790",
">  c #E8E8F0",
",  c #40558C",
"'  c #E6E6EF",
")  c #3F5388",
"!  c #3B4B7A",
"~  c #0B2B7C",
"{  c #3A4A77",
"]  c #3C4B75",
"^  c #0B2C7C",
"/  c #3C4A71",
"(  c #E3E3EE",
"_  c #39466C",
":  c #C2C1CF",
"<  c #BEBECE",
"[  c #BFBFCE",
"}  c #BFBFCF",
"|  c #C2C3D1",
"1  c #C5C5D4",
"2  c #C8C8D6",
"3  c #CBCBD8",
"4  c #CECFDB",
"5  c #D1D2DD",
"6  c #D3D4E0",
"7  c #DBDCE5",
"8  c #0C2C7B",
"9  c #07163A",
"0  c #0E1D43",
"a  c #0E1D44",
"b  c #0E1E47",
"c  c #0E1E49",
"d  c #0F1F4A",
"e  c #0F204D",
"f  c #0F214F",
"g  c #0F2252",
"h  c #102354",
"i  c #102456",
"j  c #102558",
"k  c #10255B",
"l  c #11265C",
"m  c #11285F",
"n  c #0E255E",
"o  c #0A2360",
"p  c #0A2361",
"q  c #00007D",
"                      ",
"                      ",
"                      ",
"                      ",
"  ..................+ ",
"  @#################$ ",
"  %#$$$$#$$$$#$$$$##$ ",
"  &#$##$#$##$#$##$##$ ",
"  *#$##$#$##$#$##$##= ",
"  -#$$$$#$$$$#$$$$##= ",
"  ;################>= ",
"  ,################'= ",
"  )##...############= ",
"  !#..#..##########>~ ",
"  {#.###.##########>~ ",
"  ]#..#..##########'^ ",
"  /##...######((####^ ",
"  _:<<<[}|12345675678 ",
"  90abcdefghijklmnopq ",
"                      ",
"                      ",
"                      "};
