/* XPM */
static const char * groovetog_xpm[] = {
"22 22 60 1",
"   c None",
".  c #5050C4",
"+  c #0C2C7C",
"@  c #465D98",
"#  c #E0DEE7",
"$  c #E6E6F0",
"%  c #E8E8F0",
"&  c #0A2A7B",
"*  c #465C97",
"=  c #DEDDE7",
"-  c #E4E4EE",
";  c #E6E6EF",
">  c #455B96",
",  c #DDDCE6",
"'  c #E3E3EE",
")  c #445A93",
"!  c #00007D",
"~  c #0B2B7B",
"{  c #435993",
"]  c #425790",
"^  c #40558C",
"/  c #3F5388",
"(  c #3B4B7A",
"_  c #0B2B7C",
":  c #3A4A77",
"<  c #3C4B75",
"[  c #0B2C7C",
"}  c #3C4A71",
"|  c #39466C",
"1  c #C2C1CF",
"2  c #BEBECE",
"3  c #BFBFCE",
"4  c #BFBFCF",
"5  c #C2C3D1",
"6  c #C5C5D4",
"7  c #C8C8D6",
"8  c #CBCBD8",
"9  c #CECFDB",
"0  c #D1D2DD",
"a  c #D3D4E0",
"b  c #DBDCE5",
"c  c #0C2C7B",
"d  c #07163A",
"e  c #0E1D43",
"f  c #0E1D44",
"g  c #0E1E47",
"h  c #0E1E49",
"i  c #0F1F4A",
"j  c #0F204D",
"k  c #0F214F",
"l  c #0F2252",
"m  c #102354",
"n  c #102456",
"o  c #102558",
"p  c #10255B",
"q  c #11265C",
"r  c #11285F",
"s  c #0E255E",
"t  c #0A2360",
"u  c #0A2361",
"                      ",
"                      ",
"                      ",
"                      ",
"  ..................+ ",
"  @#$%$%$%$%$%$$%$$%& ",
"  *=-;-;-;-;-;--;--;& ",
"  >,'-'-'-'-'-'.-''-& ",
"  )=............!!!;~ ",
"  {,'-'-'-'-'-'.-''-~ ",
"  ]#$%$%$.$%$%$$%$$%~ ",
"  ^=......!!!!!!!!!;~ ",
"  /,'-'-'.'-'-''-''-~ ",
"  (#$%$%$%$%.%$$%$$%_ ",
"  :#.........!!!!!!%_ ",
"  <=-;-;-;-;.;--;--;[ ",
"  },'-'-'-'-'-''-''-[ ",
"  |122234567890ab0abc ",
"  defghijklmnopqrstu! ",
"                      ",
"                      ",
"                      "};
