/* XPM */
static const char * iopanelshow_xpm[] = {
"22 22 221 2",
"   c None",
".  c #001B71",
"+  c #001B72",
"@  c #001C72",
"#  c #001F74",
"$  c #082979",
"%  c #A3ADCC",
"&  c #A3AECC",
"*  c #ABB5D0",
"=  c #909EC3",
"-  c #2C478E",
";  c #0D2970",
">  c #07205C",
",  c #F7F6F9",
"'  c #F7F6F8",
")  c #F7F5F8",
"!  c #FFFFFF",
"~  c #DBDDEA",
"{  c #3F579A",
"]  c #0D286E",
"^  c #07205D",
"/  c #86D98D",
"(  c #EBEBF2",
"_  c #F5F4F7",
":  c #D5D9E7",
"<  c #5C70A9",
"[  c #1D3675",
"}  c #061F5A",
"|  c #44824A",
"1  c #F0EFF5",
"2  c #E1E3ED",
"3  c #A9B2CF",
"4  c #445787",
"5  c #031B56",
"6  c #EFEFF7",
"7  c #F0F0F7",
"8  c #EFEFF6",
"9  c #ECECF3",
"0  c #EDEDF4",
"a  c #EEEEF4",
"b  c #ECEBEF",
"c  c #657396",
"d  c #001853",
"e  c #DCDCE4",
"f  c #DDDDE5",
"g  c #DDDDE4",
"h  c #DEDEE5",
"i  c #EDEDF5",
"j  c #E8E8F0",
"k  c #DBDBE3",
"l  c #DBDBE2",
"m  c #EDEDF3",
"n  c #F8F8FD",
"o  c #E0E0E9",
"p  c #5E6B90",
"q  c #011751",
"r  c #171717",
"s  c #171716",
"t  c #111111",
"u  c #2B2B2B",
"v  c #E2E2E6",
"w  c #A5A5A7",
"x  c #0F0F0E",
"y  c #0C0C0C",
"z  c #8C8C90",
"A  c #DFDFE8",
"B  c #5D6A8F",
"C  c #001750",
"D  c #E7E7E7",
"E  c #3B3B3A",
"F  c #686869",
"G  c #E8E8E9",
"H  c #454545",
"I  c #737375",
"J  c #F0F0F6",
"K  c #F1F1F8",
"L  c #7C7C7E",
"M  c #3A3A3B",
"N  c #C8C8D1",
"O  c #667397",
"P  c #00174E",
"Q  c #FDFDFC",
"R  c #3F3F3F",
"S  c #727273",
"T  c #FBFBFD",
"U  c #363635",
"V  c #6D6D70",
"W  c #7B7B7D",
"X  c #262626",
"Y  c #C3C2CC",
"Z  c #667296",
"`  c #00164C",
" . c #FCFCFC",
".. c #424242",
"+. c #707071",
"@. c #F7F7F9",
"#. c #393939",
"$. c #6E6E71",
"%. c #7A7A7D",
"&. c #2A292A",
"*. c #C1C0CB",
"=. c #657094",
"-. c #01154A",
";. c #132014",
">. c #444444",
",. c #757576",
"'. c #2D2D2D",
"). c #6A6A6D",
"!. c #78787B",
"~. c #1B1B1C",
"{. c #BDBCC8",
"]. c #646F93",
"^. c #001548",
"/. c #8A8A8A",
"(. c #212120",
"_. c #39393A",
":. c #919193",
"<. c #7D7D80",
"[. c #7E7E82",
"}. c #8A8A8E",
"|. c #89898D",
"1. c #828287",
"2. c #C6C5D1",
"3. c #5D688B",
"4. c #001446",
"5. c #4A4A4B",
"6. c #575758",
"7. c #4F4F50",
"8. c #575759",
"9. c #EEEEF5",
"0. c #BBBBC0",
"a. c #3F3F41",
"b. c #3D3D3F",
"c. c #A7A7AD",
"d. c #D0D0DD",
"e. c #556081",
"f. c #001344",
"g. c #F2F2F9",
"h. c #F3F3FB",
"i. c #FBFBFF",
"j. c #FAFAFF",
"k. c #F4F4FE",
"l. c #E6E6F1",
"m. c #CBCAD8",
"n. c #555F80",
"o. c #001242",
"p. c #F9F9FD",
"q. c #F7F7FB",
"r. c #F4F4FA",
"s. c #ECECF5",
"t. c #EAEAF3",
"u. c #E8E8F3",
"v. c #EAEAF5",
"w. c #E4E4F0",
"x. c #555E7E",
"y. c #00113F",
"z. c #F3F3F8",
"A. c #F2F2F7",
"B. c #EFEFF5",
"C. c #E9E9F1",
"D. c #E7E7F0",
"E. c #E6E6F0",
"F. c #E8E8F2",
"G. c #E2E3EC",
"H. c #CAC9D7",
"I. c #545D7E",
"J. c #00113E",
"K. c #F1F1F6",
"L. c #F0F0F5",
"M. c #E9E9F0",
"N. c #E6E6EF",
"O. c #E4E4EE",
"P. c #E0E1EC",
"Q. c #CAC9D8",
"R. c #545E7D",
"S. c #00113C",
"T. c #F0F1F6",
"U. c #EAEAF2",
"V. c #E7E8F1",
"W. c #E5E5EF",
"X. c #E4E4EF",
"Y. c #E5E5F0",
"Z. c #E0E0EB",
"`. c #545D7B",
" + c #001039",
".+ c #F8F5F7",
"++ c #F7F4F7",
"@+ c #F5F2F5",
"#+ c #F2EFF3",
"$+ c #EFECF2",
"%+ c #EDEAF1",
"&+ c #ECEAF1",
"*+ c #EBE9F1",
"=+ c #ECEAF3",
"-+ c #E9E6F0",
";+ c #D7D4E0",
">+ c #5A627E",
",+ c #000F38",
"'+ c #8591B5",
")+ c #8490B4",
"!+ c #838EB2",
"~+ c #818CAE",
"{+ c #7E87A7",
"]+ c #7C85A4",
"^+ c #7C85A2",
"/+ c #7D85A2",
"(+ c #7C84A0",
"_+ c #777E99",
":+ c #333F60",
"<+ c #011137",
"[+ c #2C4481",
"}+ c #2C437F",
"|+ c #2B417B",
"1+ c #283B70",
"2+ c #26386A",
"3+ c #263869",
"4+ c #283968",
"5+ c #293965",
"6+ c #293963",
"7+ c #2A3962",
"8+ c #142349",
"                    . . . + + + @ @ # $     ",
"                    % % % % % % & * = - ; > ",
"                  , , , , ' ' ' ) ! ~ { ] ^ ",
"  /               ( ( ( ( ( ( ( ( _ : < [ } ",
"  / |             ( ( ( ( ( ( ( ( 1 2 3 4 5 ",
"  / | |           6 6 7 8 9 0 7 7 8 a b c d ",
"  / | | |         e f g h i j k l m n o p q ",
"  / | | | |       r s t u v w x y z ! A B C ",
"  / | | | | |     D E F G H I J K L M N O P ",
"  / | | | | | | ! Q R S T U V ! ! W X Y Z ` ",
"  / | | | | | | |  ...+.@.#.$.! ! %.&.*.=.-.",
"  / | | | | | ;.  ! >.,.! '.).! ! !.~.{.].^.",
"  / | | | | ;.    /.(._.:.<.[.}.|.%.1.2.3.4.",
"  / | | | ;.      5.6.7.8.9.0.a.b.c.! d.e.f.",
"  / | | ;.        ! ! ! ! g.h.i.j.k.l.m.n.o.",
"  / | ;.          p.q.r.g.8 s.t.u.v.w.m.x.y.",
"  / ;.            z.A.B.0 ( C.D.E.F.G.H.I.J.",
"  ;.              K.L.a ( M.D.N.O.l.P.Q.R.S.",
"                  T.B.0 U.V.E.W.X.Y.Z.Q.`. +",
"                  .+++@+#+$+%+&+*+=+-+;+>+,+",
"                  '+)+!+~+{+]+]+^+/+(+_+:+<+",
"                    [+}+|+1+2+3+4+5+6+7+8+  "};
