/* XPM */
static const char * iopanelhide_xpm[] = {
"22 22 264 2",
"   c None",
".  c #072879",
"+  c #012376",
"@  c #001E73",
"#  c #001A71",
"$  c #001B71",
"%  c #001B72",
"&  c #001C72",
"*  c #001F74",
"=  c #082979",
"-  c #334D91",
";  c #5568A5",
">  c #808DBC",
",  c #A2ACCB",
"'  c #A5AFCD",
")  c #A3ADCC",
"!  c #A3AECC",
"~  c #ABB5D0",
"{  c #909EC3",
"]  c #2C478E",
"^  c #0D2970",
"/  c #07205C",
"(  c #818EBD",
"_  c #B3B9D7",
":  c #E4E4F0",
"<  c #F7F5F8",
"[  c #F9F7F9",
"}  c #F7F6F9",
"|  c #F7F6F8",
"1  c #FFFFFF",
"2  c #DBDDEA",
"3  c #3F579A",
"4  c #0D286E",
"5  c #07205D",
"6  c #B3B9D8",
"7  c #EBEBF2",
"8  c #D29393",
"9  c #F5F4F7",
"0  c #D5D9E7",
"a  c #5C70A9",
"b  c #1D3675",
"c  c #061F5A",
"d  c #CCD1E4",
"e  c #AB1B1B",
"f  c #F0EFF5",
"g  c #E1E3ED",
"h  c #A9B2CF",
"i  c #445787",
"j  c #031B56",
"k  c #EAEDF4",
"l  c #EDEDF5",
"m  c #ECECF3",
"n  c #EFEFF7",
"o  c #F0F0F7",
"p  c #EFEFF6",
"q  c #EDEDF4",
"r  c #EEEEF4",
"s  c #ECEBEF",
"t  c #657396",
"u  c #001853",
"v  c #EDF1F9",
"w  c #E2E4EC",
"x  c #DCDCE4",
"y  c #DDDDE5",
"z  c #DDDDE4",
"A  c #DEDEE5",
"B  c #E8E8F0",
"C  c #DBDBE3",
"D  c #DBDBE2",
"E  c #EDEDF3",
"F  c #F8F8FD",
"G  c #E0E0E9",
"H  c #5E6B90",
"I  c #011751",
"J  c #EDF0F9",
"K  c #A0A2A8",
"L  c #171717",
"M  c #171716",
"N  c #111111",
"O  c #2B2B2B",
"P  c #E2E2E6",
"Q  c #A5A5A7",
"R  c #0F0F0E",
"S  c #0C0C0C",
"T  c #8C8C90",
"U  c #DFDFE8",
"V  c #5D6A8F",
"W  c #001750",
"X  c #EFF1F7",
"Y  c #E7E7E7",
"Z  c #3B3B3A",
"`  c #686869",
" . c #E8E8E9",
".. c #454545",
"+. c #737375",
"@. c #F0F0F6",
"#. c #F1F1F8",
"$. c #7C7C7E",
"%. c #3A3A3B",
"&. c #C8C8D1",
"*. c #667397",
"=. c #00174E",
"-. c #FDFDFC",
";. c #3F3F3F",
">. c #727273",
",. c #FBFBFD",
"'. c #363635",
"). c #6D6D70",
"!. c #7B7B7D",
"~. c #262626",
"{. c #C3C2CC",
"]. c #667296",
"^. c #00164C",
"/. c #FCFCFC",
"(. c #424242",
"_. c #707071",
":. c #F7F7F9",
"<. c #393939",
"[. c #6E6E71",
"}. c #7A7A7D",
"|. c #2A292A",
"1. c #C1C0CB",
"2. c #657094",
"3. c #01154A",
"4. c #444444",
"5. c #757576",
"6. c #2D2D2D",
"7. c #6A6A6D",
"8. c #78787B",
"9. c #1B1B1C",
"0. c #BDBCC8",
"a. c #646F93",
"b. c #001548",
"c. c #212120",
"d. c #39393A",
"e. c #919193",
"f. c #7D7D80",
"g. c #7E7E82",
"h. c #8A8A8E",
"i. c #89898D",
"j. c #828287",
"k. c #C6C5D1",
"l. c #5D688B",
"m. c #001446",
"n. c #352929",
"o. c #575758",
"p. c #4F4F50",
"q. c #575759",
"r. c #EEEEF5",
"s. c #BBBBC0",
"t. c #3F3F41",
"u. c #3D3D3F",
"v. c #A7A7AD",
"w. c #D0D0DD",
"x. c #556081",
"y. c #001344",
"z. c #F2F2F9",
"A. c #F3F3FB",
"B. c #FBFBFF",
"C. c #FAFAFF",
"D. c #F4F4FE",
"E. c #E6E6F1",
"F. c #CBCAD8",
"G. c #555F80",
"H. c #001242",
"I. c #EDF0F8",
"J. c #F7F7FB",
"K. c #F4F4FA",
"L. c #ECECF5",
"M. c #EAEAF3",
"N. c #E8E8F3",
"O. c #EAEAF5",
"P. c #555E7E",
"Q. c #00113F",
"R. c #E6E9F1",
"S. c #F1F1F7",
"T. c #F3F3F8",
"U. c #F2F2F7",
"V. c #EFEFF5",
"W. c #E9E9F1",
"X. c #E7E7F0",
"Y. c #E6E6F0",
"Z. c #E8E8F2",
"`. c #E2E3EC",
" + c #CAC9D7",
".+ c #545D7E",
"++ c #00113E",
"@+ c #F1F1F6",
"#+ c #F0F0F5",
"$+ c #E9E9F0",
"%+ c #E6E6EF",
"&+ c #E4E4EE",
"*+ c #E0E1EC",
"=+ c #CAC9D8",
"-+ c #545E7D",
";+ c #00113C",
">+ c #E5E9F1",
",+ c #F5F6FA",
"'+ c #F0F1F6",
")+ c #EAEAF2",
"!+ c #E7E8F1",
"~+ c #E5E5EF",
"{+ c #E4E4EF",
"]+ c #E5E5F0",
"^+ c #E0E0EB",
"/+ c #545D7B",
"(+ c #001039",
"_+ c #F3F4F7",
":+ c #FCF9FA",
"<+ c #F8F5F7",
"[+ c #F7F4F7",
"}+ c #F5F2F5",
"|+ c #F2EFF3",
"1+ c #EFECF2",
"2+ c #EDEAF1",
"3+ c #ECEAF1",
"4+ c #EBE9F1",
"5+ c #ECEAF3",
"6+ c #E9E6F0",
"7+ c #D7D4E0",
"8+ c #5A627E",
"9+ c #000F38",
"0+ c #8593BA",
"a+ c #8C9ABE",
"b+ c #919EC0",
"c+ c #8F9CBF",
"d+ c #8F9BBE",
"e+ c #8C99BC",
"f+ c #8894B9",
"g+ c #8894B8",
"h+ c #8793B7",
"i+ c #8591B5",
"j+ c #8490B4",
"k+ c #838EB2",
"l+ c #818CAE",
"m+ c #7E87A7",
"n+ c #7C85A4",
"o+ c #7C85A2",
"p+ c #7D85A2",
"q+ c #7C84A0",
"r+ c #777E99",
"s+ c #333F60",
"t+ c #011137",
"u+ c #2E488B",
"v+ c #2F498C",
"w+ c #304A8C",
"x+ c #30498B",
"y+ c #2F488B",
"z+ c #2F4889",
"A+ c #304888",
"B+ c #2F4888",
"C+ c #2E4787",
"D+ c #2E4584",
"E+ c #2C4481",
"F+ c #2C437F",
"G+ c #2B417B",
"H+ c #283B70",
"I+ c #26386A",
"J+ c #263869",
"K+ c #283968",
"L+ c #293965",
"M+ c #293963",
"N+ c #2A3962",
"O+ c #142349",
". + @ # # $ $ $ $ $ $ $ $ % % % & & * =     ",
"- ; > , ' ) ) ) ) ) ) ) ) ) ) ) ! ~ { ] ^ / ",
"( _ : < [ } } } } } } } } | | | < 1 2 3 4 5 ",
"6 7 7 7 7 7 7 8 7 7 7 7 7 7 7 7 7 9 0 a b c ",
"d 7 7 7 7 7 8 e 7 7 7 7 7 7 7 7 7 f g h i j ",
"k 7 7 7 l 8 e e m n n o p m q o o p r s t u ",
"v 7 7 7 8 e e e w x y z A l B C D E F G H I ",
"J 1 1 8 e e e e K L M N O P Q R S T 1 U V W ",
"J 1 8 e e e e e X Y Z `  ...+.@.#.$.%.&.*.=.",
"J 8 e e e e e e r -.;.>.,.'.).1 1 !.~.{.].^.",
"8 e e e e e e e r /.(._.:.<.[.1 1 }.|.1.2.3.",
"e e e e e e e e r r 4.5.1 6.7.1 1 8.9.0.a.b.",
"J e e e e e e e r r c.d.e.f.g.h.i.}.j.k.l.m.",
"J n.e e e e e e r M o.p.q.r.s.t.u.v.1 w.x.y.",
"J 1 n.e e e e e r r 1 1 1 z.A.B.C.D.E.F.G.H.",
"I.1 1 n.e e e e r r J.K.z.p L.M.N.O.: F.P.Q.",
"R.S.S.S.n.e e e r T.U.V.q 7 W.X.Y.Z.`. +.+++",
"R.S.S.S.S.n.e e r @+#+r 7 $+X.%+&+E.*+=+-+;+",
">+,+S.S.S.S.n.e r '+V.q )+!+Y.~+{+]+^+=+/+(+",
"_+1 S.S.S.S.:+r r <+[+}+|+1+2+3+4+5+6+7+8+9+",
"0+a+b+c+d+e+f+g+h+i+j+k+l+m+n+n+o+p+q+r+s+t+",
"u+v+w+x+y+z+A+B+C+D+E+F+G+H+I+J+K+L+M+N+O+  "};
