/* XPM */
static const char * iopanelshow_xpm[] = {
"22 22 294 2",
"   c None",
".  c #072879",
"+  c #012376",
"@  c #001E73",
"#  c #001A71",
"$  c #001B71",
"%  c #001B72",
"&  c #001C72",
"*  c #001F74",
"=  c #082979",
"-  c #334D91",
";  c #5568A5",
">  c #808DBC",
",  c #A2ACCB",
"'  c #A5AFCD",
")  c #A3ADCC",
"!  c #A3AECC",
"~  c #ABB5D0",
"{  c #909EC3",
"]  c #2C478E",
"^  c #0D2970",
"/  c #07205C",
"(  c #818EBD",
"_  c #B3B9D7",
":  c #E4E4F0",
"<  c #F7F5F8",
"[  c #F9F7F9",
"}  c #F7F6F9",
"|  c #F7F6F8",
"1  c #FFFFFF",
"2  c #DBDDEA",
"3  c #3F579A",
"4  c #0D286E",
"5  c #07205D",
"6  c #B3B9D8",
"7  c #86D98D",
"8  c #F3F2F6",
"9  c #EBEBF2",
"0  c #F5F4F7",
"a  c #D5D9E7",
"b  c #5C70A9",
"c  c #1D3675",
"d  c #061F5A",
"e  c #CCD1E4",
"f  c #44824A",
"g  c #F0EFF5",
"h  c #E1E3ED",
"i  c #A9B2CF",
"j  c #445787",
"k  c #031B56",
"l  c #EAEDF4",
"m  c #EDEDF5",
"n  c #EAEAF1",
"o  c #ECECF3",
"p  c #EFEFF7",
"q  c #F0F0F7",
"r  c #EFEFF6",
"s  c #EDEDF4",
"t  c #EEEEF4",
"u  c #ECEBEF",
"v  c #657396",
"w  c #001853",
"x  c #EDF1F9",
"y  c #E8EBF2",
"z  c #E2E4EC",
"A  c #DCDCE4",
"B  c #DDDDE5",
"C  c #DDDDE4",
"D  c #DEDEE5",
"E  c #E8E8F0",
"F  c #DBDBE3",
"G  c #DBDBE2",
"H  c #EDEDF3",
"I  c #F8F8FD",
"J  c #E0E0E9",
"K  c #5E6B90",
"L  c #011751",
"M  c #EDF0F9",
"N  c #FCFEFF",
"O  c #A0A2A8",
"P  c #171717",
"Q  c #171716",
"R  c #111111",
"S  c #2B2B2B",
"T  c #E2E2E6",
"U  c #A5A5A7",
"V  c #0F0F0E",
"W  c #0C0C0C",
"X  c #8C8C90",
"Y  c #DFDFE8",
"Z  c #5D6A8F",
"`  c #001750",
" . c #F5F8FE",
".. c #EFF1F7",
"+. c #E7E7E7",
"@. c #3B3B3A",
"#. c #686869",
"$. c #E8E8E9",
"%. c #454545",
"&. c #737375",
"*. c #F0F0F6",
"=. c #F1F1F8",
"-. c #7C7C7E",
";. c #3A3A3B",
">. c #C8C8D1",
",. c #667397",
"'. c #00174E",
"). c #FDFDFC",
"!. c #3F3F3F",
"~. c #727273",
"{. c #FBFBFD",
"]. c #363635",
"^. c #6D6D70",
"/. c #7B7B7D",
"(. c #262626",
"_. c #C3C2CC",
":. c #667296",
"<. c #00164C",
"[. c #FCFCFC",
"}. c #424242",
"|. c #707071",
"1. c #F7F7F9",
"2. c #393939",
"3. c #6E6E71",
"4. c #7A7A7D",
"5. c #2A292A",
"6. c #C1C0CB",
"7. c #657094",
"8. c #01154A",
"9. c #132014",
"0. c #CDCED1",
"a. c #444444",
"b. c #757576",
"c. c #2D2D2D",
"d. c #6A6A6D",
"e. c #78787B",
"f. c #1B1B1C",
"g. c #BDBCC8",
"h. c #646F93",
"i. c #001548",
"j. c #E1E3EA",
"k. c #DEE0E7",
"l. c #8A8A8A",
"m. c #212120",
"n. c #39393A",
"o. c #919193",
"p. c #7D7D80",
"q. c #7E7E82",
"r. c #8A8A8E",
"s. c #89898D",
"t. c #828287",
"u. c #C6C5D1",
"v. c #5D688B",
"w. c #001446",
"x. c #AFB1B7",
"y. c #4A4A4B",
"z. c #575758",
"A. c #4F4F50",
"B. c #575759",
"C. c #EEEEF5",
"D. c #BBBBC0",
"E. c #3F3F41",
"F. c #3D3D3F",
"G. c #A7A7AD",
"H. c #D0D0DD",
"I. c #556081",
"J. c #001344",
"K. c #EAECF2",
"L. c #F0F2F9",
"M. c #F2F2F9",
"N. c #F3F3FB",
"O. c #FBFBFF",
"P. c #FAFAFF",
"Q. c #F4F4FE",
"R. c #E6E6F1",
"S. c #CBCAD8",
"T. c #555F80",
"U. c #001242",
"V. c #EDF0F8",
"W. c #FEFEFF",
"X. c #ECEEF4",
"Y. c #EBEDF4",
"Z. c #F9F9FD",
"`. c #F7F7FB",
" + c #F4F4FA",
".+ c #ECECF5",
"++ c #EAEAF3",
"@+ c #E8E8F3",
"#+ c #EAEAF5",
"$+ c #555E7E",
"%+ c #00113F",
"&+ c #E6E9F1",
"*+ c #FEFEFE",
"=+ c #FDFDFD",
"-+ c #F6F6F9",
";+ c #F5F5F9",
">+ c #F4F4F9",
",+ c #F3F3F8",
"'+ c #F2F2F7",
")+ c #EFEFF5",
"!+ c #E9E9F1",
"~+ c #E7E7F0",
"{+ c #E6E6F0",
"]+ c #E8E8F2",
"^+ c #E2E3EC",
"/+ c #CAC9D7",
"(+ c #545D7E",
"_+ c #00113E",
":+ c #FBFBFC",
"<+ c #F4F4F8",
"[+ c #F3F3F7",
"}+ c #F1F1F6",
"|+ c #F0F0F5",
"1+ c #E9E9F0",
"2+ c #E6E6EF",
"3+ c #E4E4EE",
"4+ c #E0E1EC",
"5+ c #CAC9D8",
"6+ c #545E7D",
"7+ c #00113C",
"8+ c #E5E9F1",
"9+ c #F5F6FA",
"0+ c #FDFDFE",
"a+ c #FAFAFC",
"b+ c #F3F4F8",
"c+ c #F1F1F7",
"d+ c #F0F1F6",
"e+ c #EAEAF2",
"f+ c #E7E8F1",
"g+ c #E5E5EF",
"h+ c #E4E4EF",
"i+ c #E5E5F0",
"j+ c #E0E0EB",
"k+ c #545D7B",
"l+ c #001039",
"m+ c #F3F4F7",
"n+ c #FCF9FA",
"o+ c #FBF8F9",
"p+ c #FAF7F8",
"q+ c #F8F5F7",
"r+ c #F7F4F7",
"s+ c #F5F2F5",
"t+ c #F2EFF3",
"u+ c #EFECF2",
"v+ c #EDEAF1",
"w+ c #ECEAF1",
"x+ c #EBE9F1",
"y+ c #ECEAF3",
"z+ c #E9E6F0",
"A+ c #D7D4E0",
"B+ c #5A627E",
"C+ c #000F38",
"D+ c #8593BA",
"E+ c #8C9ABE",
"F+ c #919EC0",
"G+ c #8F9CBF",
"H+ c #8F9BBE",
"I+ c #8C99BC",
"J+ c #8894B9",
"K+ c #8894B8",
"L+ c #8793B7",
"M+ c #8591B5",
"N+ c #8490B4",
"O+ c #838EB2",
"P+ c #818CAE",
"Q+ c #7E87A7",
"R+ c #7C85A4",
"S+ c #7C85A2",
"T+ c #7D85A2",
"U+ c #7C84A0",
"V+ c #777E99",
"W+ c #333F60",
"X+ c #011137",
"Y+ c #2E488B",
"Z+ c #2F498C",
"`+ c #304A8C",
" @ c #30498B",
".@ c #2F488B",
"+@ c #2F4889",
"@@ c #304888",
"#@ c #2F4888",
"$@ c #2E4787",
"%@ c #2E4584",
"&@ c #2C4481",
"*@ c #2C437F",
"=@ c #2B417B",
"-@ c #283B70",
";@ c #26386A",
">@ c #263869",
",@ c #283968",
"'@ c #293965",
")@ c #293963",
"!@ c #2A3962",
"~@ c #142349",
". + @ # # $ $ $ $ $ $ $ $ % % % & & * =     ",
"- ; > , ' ) ) ) ) ) ) ) ) ) ) ) ! ~ { ] ^ / ",
"( _ : < [ } } } } } } } } | | | < 1 2 3 4 5 ",
"6 7 8 9 9 9 9 9 9 9 9 9 9 9 9 9 9 0 a b c d ",
"e 7 f 9 9 9 9 9 9 9 9 9 9 9 9 9 9 g h i j k ",
"l 7 f f m n 9 n o p p q r o s q q r t u v w ",
"x 7 f f f o o y z A B C D m E F G H I J K L ",
"M 7 f f f f 1 N O P Q R S T U V W X 1 Y Z ` ",
"M 7 f f f f f  ...+.@.#.$.%.&.*.=.-.;.>.,.'.",
"M 7 f f f f f f 1 ).!.~.{.].^.1 1 /.(._.:.<.",
"M 7 f f f f f f f [.}.|.1.2.3.1 1 4.5.6.7.8.",
"M 7 f f f f f 9.0.1 a.b.1 c.d.1 1 e.f.g.h.i.",
"M 7 f f f f 9.j.k.l.m.n.o.p.q.r.s.4.t.u.v.w.",
"M 7 f f f 9.1 1 x.y.z.A.B.C.D.E.F.G.1 H.I.J.",
"M 7 f f 9.o 1 K.L.1 1 1 1 M.N.O.P.Q.R.S.T.U.",
"V.7 f 9.1 1 W.X.Y.Z.`. +M.r .+++@+#+: S.$+%+",
"&+7 9.*+1 =+-+;+>+,+'+)+s 9 !+~+{+]+^+/+(+_+",
"&+9.1 1 1 :+<+[+[+}+|+t 9 1+~+2+3+R.4+5+6+7+",
"8+9+1 *+0+a+b+'+c+d+)+s e+f+{+g+h+i+j+5+k+l+",
"m+1 1 1 1 1 n+o+p+q+r+s+t+u+v+w+x+y+z+A+B+C+",
"D+E+F+G+H+I+J+K+L+M+N+O+P+Q+R+R+S+T+U+V+W+X+",
"Y+Z+`+ @.@+@@@#@$@%@&@*@=@-@;@>@,@'@)@!@~@  "};
