/* XPM */
static const char * jacktr_xpm[] = {
"22 22 143 2",
"   c None",
".  c #2A1F18",
"+  c #271D18",
"@  c #241B17",
"#  c #281D17",
"$  c #231814",
"%  c #2A1F1A",
"&  c #281C18",
"*  c #CFCDC8",
"=  c #CBC8C4",
"-  c #72716F",
";  c #302F2E",
">  c #C0BEBB",
",  c #6A635F",
"'  c #201410",
")  c #312622",
"!  c #726B62",
"~  c #6B6359",
"{  c #352B24",
"]  c #271C18",
"^  c #FFFFFF",
"/  c #FCFCFD",
"(  c #8F8F8F",
"_  c #3B3B3B",
":  c #EFF0F0",
"<  c #918C8A",
"[  c #4D443E",
"}  c #686059",
"|  c #69605A",
"1  c #4B413C",
"2  c #E5E4E5",
"3  c #DCD9D6",
"4  c #898378",
"5  c #98938E",
"6  c #5A514E",
"7  c #382E2A",
"8  c #F5F4F3",
"9  c #F0EFEE",
"0  c #878786",
"a  c #383838",
"b  c #E3E3E2",
"c  c #908B88",
"d  c #C0BDBC",
"e  c #7D7774",
"f  c #DAD9D9",
"g  c #E6E5E2",
"h  c #CDCAC5",
"i  c #B1ACAB",
"j  c #655D5A",
"k  c #8B857A",
"l  c #888278",
"m  c #4C4943",
"n  c #1F1E1B",
"o  c #807B71",
"p  c #5C544D",
"q  c #8A847F",
"r  c #BBB8B1",
"s  c #BCB9B2",
"t  c #635B56",
"u  c #DDDBDB",
"v  c #D4D2CE",
"w  c #857E73",
"x  c #B4B0AA",
"y  c #E2E1DE",
"z  c #D1CECE",
"A  c #595041",
"B  c #574E3F",
"C  c #312C24",
"D  c #13110E",
"E  c #514A3C",
"F  c #42382E",
"G  c #494034",
"H  c #5A5141",
"I  c #5A5142",
"J  c #3D332B",
"K  c #5F584C",
"L  c #665D4F",
"M  c #585041",
"N  c #5C5445",
"O  c #696254",
"P  c #675E54",
"Q  c #6B6355",
"R  c #686153",
"S  c #3B362E",
"T  c #191613",
"U  c #635B4F",
"V  c #4C433A",
"W  c #70675E",
"X  c #948D80",
"Y  c #958E81",
"Z  c #514740",
"`  c #787065",
" . c #9A9388",
".. c #ACA59A",
"+. c #9D958A",
"@. c #867E72",
"#. c #544B40",
"$. c #2D221D",
"%. c #B8B1A6",
"&. c #B4ADA3",
"*. c #65625C",
"=. c #292826",
"-. c #AAA49B",
";. c #716961",
">. c #8C837D",
",. c #BFB9B1",
"'. c #C0BAB2",
"). c #635A54",
"!. c #BAB3AB",
"~. c #DBD5CC",
"{. c #E1DCD3",
"]. c #B9B2AA",
"^. c #675E58",
"/. c #322724",
"(. c #D8D2C9",
"_. c #D3CEC5",
":. c #77746E",
"<. c #302F2D",
"[. c #C9C3BB",
"}. c #7D756E",
"|. c #322723",
"1. c #443935",
"2. c #443A35",
"3. c #3C312D",
"4. c #BEB7AF",
"5. c #DFD9D0",
"6. c #817972",
"7. c #3A302B",
"8. c #A7A098",
"9. c #A49D95",
"0. c #615C57",
"a. c #2E2B28",
"b. c #979089",
"c. c #3E342F",
"d. c #352A26",
"e. c #5A504B",
"f. c #291E1A",
"g. c #190D0A",
"h. c #190E0A",
"i. c #2B1F1B",
"j. c #1B100C",
"k. c #1C110D",
"l. c #000000",
"                                            ",
"                                            ",
"  . . . . . + @ # $         % &             ",
"  * * * * = - ; > , '     ) ! ~ { ]         ",
"  ^ ^ ^ ^ / ( _ : < [ } | 1 2 3 4 5 6 7     ",
"  8 8 8 8 9 0 a b c d ^ ^ e f g h ^ ^ i j   ",
"  k k k k l m n o p q r s t u v w x y ^ z   ",
"  A A A A B C D E F G H I J K L I M N O P   ",
"  Q Q Q Q R S T U V W X Y Z `  ...+.@.#.$.  ",
"  %.%.%.%.&.*.=.-.;.>.,.'.).!.~.{.].^./.    ",
"  (.(.(.(._.:.<.[.}.|.1.2.3.4.5.6.7.        ",
"  8.8.8.8.9.0.a.b.c.      d.}.e.f.          ",
"  g.g.g.g.h.$ i.j.          k.              ",
"                                            ",
"    l.      l.l.        l.l.l.l.  l.    l.l.",
"    l.    l.l.l.l.    l.l.    l.  l.  l.l.  ",
"    l.    l.l.l.l.    l.          l.l.l.    ",
"    l.    l.l.l.l.    l.          l.l.l.    ",
"    l.  l.l.l.l.l.l.  l.l.    l.  l.  l.l.  ",
"    l.  l.l.    l.l.    l.l.l.l.  l.    l.l.",
"    l.                                      ",
"  l.l.                                      "};
