/* XPM */
static const char * latchmodeon_xpm[] = {
"22 22 77 1",
"   c None",
".  c #7BF483",
"+  c #86F58E",
"@  c #6DF276",
"#  c #31EE3E",
"$  c #18EB26",
"%  c #67F270",
"&  c #0C9916",
"*  c #053E09",
"=  c #021F04",
"-  c #032605",
";  c #053C08",
">  c #0C9515",
",  c #53F05D",
"'  c #000000",
")  c #06510B",
"!  c #043708",
"~  c #0B8613",
"{  c #46EF51",
"]  c #49F055",
"^  c #0B8C14",
"/  c #054009",
"(  c #08630E",
"_  c #FFFFFF",
":  c #0DA017",
"<  c #043B08",
"[  c #10CB1D",
"}  c #0FBE1B",
"|  c #043107",
"1  c #0FC01B",
"2  c #075E0D",
"3  c #054409",
"4  c #08670E",
"5  c #06490A",
"6  c #6EF377",
"7  c #06530C",
"8  c #075C0D",
"9  c #064B0A",
"0  c #064D0B",
"a  c #1DEC2B",
"b  c #13E621",
"c  c #12DD20",
"d  c #12DB1F",
"e  c #13E821",
"f  c #81F489",
"g  c #65F26F",
"h  c #043908",
"i  c #2CED39",
"j  c #60F16A",
"k  c #05460A",
"l  c #0A7B11",
"m  c #12DF20",
"n  c #0A8112",
"o  c #054209",
"p  c #05480A",
"q  c #24ED32",
"r  c #097811",
"s  c #23EC30",
"t  c #11D21E",
"u  c #11D61F",
"v  c #0DA217",
"w  c #2AED37",
"x  c #58F163",
"y  c #61F26B",
"z  c #5AF164",
"A  c #12E521",
"B  c #44EF50",
"C  c #064F0B",
"D  c #097210",
"E  c #08610E",
"F  c #07580C",
"G  c #075A0D",
"H  c #07600D",
"I  c #93F69A",
"J  c #69F272",
"K  c #51F05C",
"L  c #4FF05A",
"       .   +@#$#%+    ",
"          %&*=-=;>,   ",
" ''''''''')!~{@]^/(%  ",
" '_'_'___:<[_'_' }|1  ",
" '_'_'___)2@_'_'  34  ",
" '_'_'___546_'_'  78  ",
" '_'_'___946_'_'  72  ",
" '_______946___'  72  ",
" '_______04@___'  78  ",
" '''''''abbcddcccceeef",
"       g<;*;;h|h;**;3i",
"       j<33kklmno33kpq",
"       j;k33r   >33k5s",
"       j;kk<t   uk3k5s",
"       j;k33l   v33k5s",
"       j;kkk3w j*33k5s",
"       j;kk3p$ xh33k5s",
"       y;kk35a z!k335s",
"       y;kk3pA Bh3k35s",
"       y;33k3CD93kk35s",
"       @E8888FG8G8GGH{",
"       IJ,,K,,,,,,LLj "};
