/* XPM */
static const char * lfoadd_xpm[] = {
"22 22 10 1",
" 	c None",
".	c #666666",
"+	c #00FF00",
"@	c #000000",
"#	c #00CC00",
"$	c #006600",
"%	c #3D3D3D",
"&	c #EDB632",
"*	c #999999",
"=	c #612324",
"                      ",
"                      ",
"           .....      ",
"           .+++@      ",
"           .+#$@      ",
"           .+#$@      ",
"       .....+#$@....  ",
"       .++++###++++@  ",
"       .+#########$@  ",
"       .$$$$###$$$$@  ",
"       .@@@@+#$@@@@@  ",
"           .+#$@      ",
"  ..........+#$@%..   ",
"  .&&&&&&&&.$$$@*&&@  ",
"  .&========@@@@===@  ",
"  .&====&&&======&&@  ",
"  .&===&===&====&==@  ",
"  .&==&=====&==&===@  ",
"  .&&&=======&&====@  ",
"   @@@@@@@@@@@@@@@@@  ",
"                      ",
"                      "};
