/* XPM */
static const char * lfowcustm_xpm[] = {
"24 24 2 1",
"   c None",
".  c #9C2C00",
"                        ",
"                        ",
"                        ",
"                        ",
"                        ",
"                        ",
"                        ",
"                        ",
"                        ",
"                        ",
"             ...        ",
"            .....       ",
"           ... ..       ",
"          ...  ..       ",
"     .......   ..       ",
"    ......      ..   ...",
"   ...          ... ....",
"  ...            .. ... ",
" ...             ....   ",
"...               ...   ",
"                        ",
"                        ",
"                        ",
"                        "};
