/* XPM */
static const char * lfowavcp_xpm[] = {
"22 22 5 1",
"   c None",
".  c #666666",
"+  c #EDB632",
"@  c #003099",
"#  c #612324",
"                      ",
"                      ",
"                      ",
"                      ",
"                      ",
".++++++++++++++++@    ",
".+###############@    ",
".+####+++######++@    ",
".+###+###+####+##@    ",
".+##+#####+##+###@    ",
".+++#######++####@    ",
" @@@@@@@@@@@@@@@@@    ",
"                      ",
"                      ",
"   .++++++++++++++++@ ",
"   .+###############@ ",
"   .+####+++######++@ ",
"   .+###+###+####+##@ ",
"   .+##+#####+##+###@ ",
"   .+++#######++####@ ",
"    @@@@@@@@@@@@@@@@@ ",
"                      "};
