/* XPM */
static const char * lfowsine_xpm[] = {
"24 24 2 1",
"   c None",
".  c #003099",
"                        ",
"                        ",
"                        ",
"                        ",
"                        ",
"                        ",
"                        ",
"                        ",
"                        ",
"                        ",
"           ..           ",
"         ......         ",
"       ..........       ",
"      ...      ...      ",
"      ..        ..      ",
"     ...        ...     ",
"    ...          ...    ",
"   ...            ...   ",
".....              .....",
"....                ....",
"                        ",
"                        ",
"                        ",
"                        "};
