/* XPM */
static const char * lfowsquare_xpm[] = {
"24 24 2 1",
"   c None",
".  c #003099",
"                        ",
"                        ",
"                        ",
"                        ",
"                        ",
"                        ",
"                        ",
"                        ",
".............           ",
".............           ",
"..         ..           ",
"..         ..           ",
"..         ..           ",
"..         ..           ",
"..         ..           ",
"..         ..           ",
"..         ..           ",
"..         ..           ",
"..         .............",
"..         .............",
"                        ",
"                        ",
"                        ",
"                        "};
