/* XPM */
static const char * lfowflip_xpm[] = {
"24 24 3 1",
" 	c None",
".	c #9C2C00",
"+	c #000000",
"...               ...   ",
" ...             ....   ",
"  ...            .. ... ",
"   ...          ... ....",
"    ......      ..   ...",
"     .......   ..       ",
"          ...  ..       ",
"       +   ... ..       ",
"      +++   .....       ",
"     +++++   ...        ",
"       +                ",
"++++++++++++++++++++++++",
"       +                ",
"     +++++   ...        ",
"      +++   .....       ",
"       +   ... ..       ",
"          ...  ..       ",
"     .......   ..       ",
"    ......      ..   ...",
"   ...          ... ....",
"  ...            .. ... ",
" ...             ....   ",
"...               ...   ",
"                        "};
