/* XPM */
static const char * midicontrol_xpm[] = {
"24 24 263 2",
"   c None",
".  c #075001",
"+  c #E6E850",
"@  c #2B8800",
"#  c #035200",
"$  c #024100",
"%  c #076001",
"&  c #FFFF59",
"*  c #399A01",
"=  c #036E00",
"-  c #024200",
";  c #086000",
">  c #FFFF5A",
",  c #389A01",
"'  c #026200",
")  c #023D00",
"!  c #126604",
"~  c #E8F450",
"{  c #2A8401",
"]  c #063D01",
"^  c #1A4B06",
"/  c #52791A",
"(  c #1C4B08",
"_  c #003D00",
":  c #004A01",
"<  c #005400",
"[  c #005800",
"}  c #005101",
"|  c #014500",
"1  c #003600",
"2  c #537D1A",
"3  c #BAC531",
"4  c #045D00",
"5  c #004700",
"6  c #1A6E03",
"7  c #61A61F",
"8  c #A4CF30",
"9  c #AFD732",
"0  c #8FC42D",
"a  c #429012",
"b  c #055800",
"c  c #003C01",
"d  c #66A11F",
"e  c #F2FB40",
"f  c #078101",
"g  c #015800",
"h  c #003400",
"i  c #034E02",
"j  c #68A214",
"k  c #FEFF65",
"l  c #BEE12F",
"m  c #9AD30F",
"n  c #F7FB5B",
"o  c #79C414",
"p  c #EAF551",
"q  c #DAEC4B",
"r  c #0D6204",
"s  c #003F00",
"t  c #004800",
"u  c #68A11F",
"v  c #F4FB40",
"w  c #078100",
"x  c #036000",
"y  c #004300",
"z  c #78AB18",
"A  c #E2F048",
"B  c #288907",
"C  c #007100",
"D  c #1A7D04",
"E  c #74AD23",
"F  c #007201",
"G  c #037800",
"H  c #6FB11B",
"I  c #EEF55D",
"J  c #1A6905",
"K  c #013B00",
"L  c #004901",
"M  c #69A320",
"N  c #F2FB3F",
"O  c #025700",
"P  c #003B01",
"Q  c #277408",
"R  c #FAFE61",
"S  c #1C8004",
"T  c #016500",
"U  c #005100",
"V  c #024700",
"W  c #004601",
"X  c #024902",
"Y  c #015A00",
"Z  c #006A00",
"`  c #86BE17",
" . c #B3D136",
".. c #004900",
"+. c #6AA31F",
"@. c #E9F740",
"#. c #077600",
"$. c #97C12F",
"%. c #82BD15",
"&. c #006B00",
"*. c #025300",
"=. c #013600",
"-. c #004100",
";. c #026100",
">. c #047703",
",. c #E9F554",
"'. c #247102",
"). c #013701",
"!. c #014200",
"~. c #6FA422",
"{. c #A7CE2F",
"]. c #0F5802",
"^. c #012F00",
"/. c #004F00",
"(. c #E3F145",
"_. c #0E8102",
":. c #006A01",
"<. c #186001",
"[. c #003300",
"}. c #003E01",
"|. c #1B7101",
"1. c #027701",
"2. c #B2DA36",
"3. c #73A71E",
"4. c #013E01",
"5. c #013400",
"6. c #447014",
"7. c #4C7D18",
"8. c #143F06",
"9. c #DDEC45",
"0. c #048002",
"a. c #167F00",
"b. c #FFFF61",
"c. c #175705",
"d. c #013A00",
"e. c #023C00",
"f. c #87AA1D",
"g. c #F1F95A",
"h. c #027E02",
"i. c #93CC23",
"j. c #91B930",
"k. c #003E00",
"l. c #C5DD39",
"m. c #068102",
"n. c #017901",
"o. c #1C7D06",
"p. c #156905",
"q. c #015401",
"r. c #025400",
"s. c #025402",
"t. c #086602",
"u. c #1E8506",
"v. c #028201",
"w. c #A7D62F",
"x. c #7BAA24",
"y. c #013F01",
"z. c #003701",
"A. c #658B20",
"B. c #ABBC26",
"C. c #006100",
"D. c #8FB82C",
"E. c #5EAF0A",
"F. c #008001",
"G. c #419D0E",
"H. c #FFFF71",
"I. c #1D7803",
"J. c #338602",
"K. c #67A413",
"L. c #FFFF50",
"M. c #007A00",
"N. c #008402",
"O. c #E0F24C",
"P. c #2D7506",
"Q. c #004801",
"R. c #7DB126",
"S. c #EAF833",
"T. c #007C00",
"U. c #013A01",
"V. c #2F790E",
"W. c #F4F94C",
"X. c #0C8600",
"Y. c #058401",
"Z. c #2F9600",
"`. c #5EA90C",
" + c #FFFF6B",
".+ c #027A02",
"++ c #289402",
"@+ c #008301",
"#+ c #48A40A",
"$+ c #C9DF3D",
"%+ c #004500",
"&+ c #7EB226",
"*+ c #EBF935",
"=+ c #007D00",
"-+ c #015C00",
";+ c #004400",
">+ c #94BB29",
",+ c #C2DF2D",
"'+ c #007E02",
")+ c #038202",
"!+ c #027F01",
"~+ c #088302",
"{+ c #048201",
"]+ c #048500",
"^+ c #349906",
"/+ c #F7FB5E",
"(+ c #27710B",
"_+ c #003B00",
":+ c #80B226",
"<+ c #EBF834",
"[+ c #83B029",
"}+ c #E7F549",
"|+ c #7FBF13",
"1+ c #2D9500",
"2+ c #1B8F00",
"3+ c #47A302",
"4+ c #AFD92D",
"5+ c #E4F14C",
"6+ c #2E760B",
"7+ c #82B428",
"8+ c #DEF132",
"9+ c #027000",
"0+ c #2E730A",
"a+ c #A0C23C",
"b+ c #D4E249",
"c+ c #DBE746",
"d+ c #C8DB49",
"e+ c #78A725",
"f+ c #024501",
"g+ c #83B227",
"h+ c #96C527",
"i+ c #0C5301",
"j+ c #778429",
"k+ c #306F09",
"l+ c #034201",
"m+ c #014900",
"n+ c #034902",
"o+ c #024602",
"p+ c #013C00",
"q+ c #023201",
"r+ c #163D05",
"s+ c #396214",
"t+ c #376012",
"u+ c #1A3C06",
"v+ c #034601",
"w+ c #B8D240",
"x+ c #85C11F",
"y+ c #045502",
"z+ c #054800",
"A+ c #B6D241",
"B+ c #B2D92B",
"C+ c #037802",
"D+ c #043101",
"E+ c #023301",
"F+ c #023701",
"G+ c #064B01",
"H+ c #B5D040",
"I+ c #B8DD2C",
"J+ c #057E02",
"K+ c #044701",
"L+ c #B8D442",
"M+ c #B4DB2D",
"N+ c #047702",
"                                                ",
"              . + @ #                           ",
"            $ % & * =                           ",
"            - ; > , '                           ",
"            ) ! ~ { ]                           ",
"              ^ / (     _ : < [ } | 1           ",
"      2 3 4           5 6 7 8 9 0 a b c         ",
"    5 d e f g     h i j k l m n o p q r s       ",
"    t u v w x     y z A B C D E F G H I J K     ",
"    L M N w O   P Q R S T U V W X Y Z `  .t     ",
"    ..+.@.#.    5 $.%.&.*.=.      -.;.>.,.'.).  ",
"    !.~.{.].  ^./.(._.:.<.[.      }.|.1.2.3.4.  ",
"    5.6.7.8.    ..9.0.a.b.c.P d.e.f.g.h.i.j.!.  ",
"                k.l.m.n.o.p.q.r.s.t.u.v.w.x.y.  ",
"    z.A.B.C.    _ D.E.F.G.H.I.J.K.L.M.N.O.P.=.  ",
"    Q.R.S.T.    U.V.W.X.Y.Z.`. +.+++@+#+$+%+    ",
"    Q.&+*+=+-+    ;+>+,+'+)+!+~+{+]+^+/+(+_+    ",
"    L :+<+T.        5 [+}+|+1+2+3+4+5+6+k.      ",
"    t 7+8+9+          !.0+a+b+c+d+e+U k.        ",
"    f+g+h+i+    j+k+    =.l+m+n+o+p+q+          ",
"    r+s+t+u+  v+w+x+y+                          ",
"              z+A+B+C+                          ",
"        D+E+F+G+H+I+J+                          ",
"              K+L+M+N+                          "};
