/* XPM */
static const char * midicontrol_xpm[] = {
"24 24 404 2",
"   c #808080",
".  c #7F807F",
"+  c #887782",
"@  c #7F9475",
"#  c #6CAA63",
"$  c #0CE88D",
"%  c #00FEA2",
"&  c #00FAD4",
"*  c #00F8CC",
"=  c #00F898",
"-  c #00F8BB",
";  c #00FCD5",
">  c #2BC293",
",  c #71A564",
"'  c #837E7C",
")  c #807F7F",
"!  c #789776",
"~  c #07F561",
"{  c #00FADA",
"]  c #00F49B",
"^  c #00F0A9",
"/  c #00ECA7",
"(  c #00EAAB",
"_  c #00E8A9",
":  c #00EAB0",
"<  c #00F0B5",
"[  c #00F4B8",
"}  c #02F8BB",
"|  c #24ACDA",
"1  c #71997D",
"2  c #837C7F",
"3  c #62C25D",
"4  c #00FE4E",
"5  c #00F8C6",
"6  c #00F4A6",
"7  c #00EEB9",
"8  c #00E883",
"9  c #00E074",
"0  c #00DC81",
"a  c #00D870",
"b  c #00D665",
"c  c #00D86B",
"d  c #00DC72",
"e  c #00E275",
"f  c #00E888",
"g  c #00EEB3",
"h  c #00F6AE",
"i  c #00F8E4",
"j  c #00FC60",
"k  c #64BD64",
"l  c #7F8080",
"m  c #7E817F",
"n  c #58CC54",
"o  c #00FA53",
"p  c #00F2B6",
"q  c #00EAA0",
"r  c #00E27A",
"s  c #00DA61",
"t  c #00D25E",
"u  c #00CA24",
"v  c #00C010",
"w  c #00BC12",
"x  c #00C00E",
"y  c #00CC22",
"z  c #00D45F",
"A  c #00DA6C",
"B  c #00E486",
"C  c #00F2C7",
"D  c #00FAE0",
"E  c #03F92E",
"F  c #6CB166",
"G  c #817F7D",
"H  c #867982",
"I  c #A65F8A",
"J  c #05F59B",
"K  c #00F88C",
"L  c #00F2BC",
"M  c #00E893",
"N  c #00DE68",
"O  c #00D469",
"P  c #00C60A",
"Q  c #078F24",
"R  c #0D5F00",
"S  c #0B4C00",
"T  c #0B4800",
"U  c #0D4F00",
"V  c #0D6100",
"W  c #079932",
"X  c #00CA1A",
"Y  c #00D656",
"Z  c #00E084",
"`  c #00EA95",
" . c #00F2CD",
".. c #00FABC",
"+. c #04FA7B",
"@. c #7E68BC",
"#. c #7D887D",
"$. c #09F319",
"%. c #00FACE",
"&. c #00F2C2",
"*. c #00E88E",
"=. c #00DC68",
"-. c #00D24A",
";. c #08922D",
">. c #0C4E00",
",. c #0D5B00",
"'. c #068631",
"). c #0A841F",
"!. c #0E4800",
"~. c #088A24",
"{. c #078129",
"]. c #0E5500",
"^. c #0A5301",
"/. c #03A32D",
"(. c #00D875",
"_. c #00DE78",
":. c #00F4CF",
"<. c #00FA47",
"[. c #44E54C",
"}. c #69AD71",
"|. c #00EAA5",
"1. c #00DE73",
"2. c #00D240",
"3. c #088623",
"4. c #0E4A00",
"5. c #079332",
"6. c #00C20E",
"7. c #00C024",
"8. c #05A326",
"9. c #0D5201",
"0. c #04AB21",
"a. c #00C232",
"b. c #00BE08",
"c. c #098725",
"d. c #0E4900",
"e. c #069433",
"f. c #00D660",
"g. c #00ECA1",
"h. c #00F4D4",
"i. c #12EA4F",
"j. c #2DCBAD",
"k. c #00F8D8",
"l. c #00EEA8",
"m. c #00D64C",
"n. c #0C4A00",
"o. c #00B421",
"p. c #00C638",
"q. c #00CA34",
"r. c #00CE3A",
"s. c #00CE3F",
"t. c #00CE44",
"u. c #00CC3E",
"v. c #00C62F",
"w. c #059B2F",
"x. c #04B022",
"y. c #00E692",
"z. c #00F2B1",
"A. c #21FA2A",
"B. c #00F4B2",
"C. c #00DC7C",
"D. c #00C80E",
"E. c #069832",
"F. c #00CC3A",
"G. c #00DE6E",
"H. c #00DC5D",
"I. c #00D45A",
"J. c #00C834",
"K. c #088A2C",
"L. c #0D5500",
"M. c #00CA0E",
"N. c #00EC96",
"O. c #00F6D0",
"P. c #00E5E8",
"Q. c #00F09E",
"R. c #00E48B",
"S. c #00D85B",
"T. c #08881D",
"U. c #0D6400",
"V. c #00C826",
"W. c #00D44B",
"X. c #00ECC2",
"Y. c #00D04E",
"Z. c #00C821",
"`. c #00BC11",
" + c #0D5100",
".+ c #04A623",
"++ c #00E687",
"@+ c #00F6CB",
"#+ c #00EE97",
"$+ c #00E079",
"%+ c #00D02C",
"&+ c #0F5700",
"*+ c #05952F",
"=+ c #00C62A",
"-+ c #00D65B",
";+ c #00E280",
">+ c #00ECBD",
",+ c #00F08D",
"'+ c #00F294",
")+ c #00F2A5",
"!+ c #00E285",
"~+ c #00CA21",
"{+ c #00C433",
"]+ c #0D7D0F",
"^+ c #087816",
"/+ c #00E481",
"(+ c #00F0AF",
"_+ c #00DE5E",
":+ c #00C813",
"<+ c #0C4900",
"[+ c #04AD1D",
"}+ c #00C412",
"|+ c #00CA26",
"1+ c #099733",
"2+ c #01C921",
"3+ c #00E6A2",
"4+ c #00EA9A",
"5+ c #00EC90",
"6+ c #01D31D",
"7+ c #0B9332",
"8+ c #00C00D",
"9+ c #00C225",
"0+ c #049A2F",
"a+ c #0C5E00",
"b+ c #00D856",
"c+ c #00EE9D",
"d+ c #00F8C1",
"e+ c #00EC9B",
"f+ c #00DE63",
"g+ c #00C417",
"h+ c #0C4800",
"i+ c #00B11B",
"j+ c #00C212",
"k+ c #00B41C",
"l+ c #0C3400",
"m+ c #0C8823",
"n+ c #00DE7D",
"o+ c #069F2E",
"p+ c #0A3200",
"q+ c #04A624",
"r+ c #04A521",
"s+ c #0D5600",
"t+ c #00D838",
"u+ c #00EC80",
"v+ c #00C812",
"w+ c #04AD1C",
"x+ c #00C425",
"y+ c #04A426",
"z+ c #00D847",
"A+ c #00D851",
"B+ c #00C817",
"C+ c #05A22C",
"D+ c #00BE05",
"E+ c #00C01B",
"F+ c #059D2E",
"G+ c #0B6000",
"H+ c #00D84C",
"I+ c #00E28A",
"J+ c #00EEA2",
"K+ c #00D234",
"L+ c #0C5600",
"M+ c #05992D",
"N+ c #00C017",
"O+ c #00C00A",
"P+ c #0D660E",
"Q+ c #098E2B",
"R+ c #00D24F",
"S+ c #00D058",
"T+ c #098B32",
"U+ c #0B7920",
"V+ c #00C22E",
"W+ c #00BE16",
"X+ c #00BE12",
"Y+ c #0B7F12",
"Z+ c #087A19",
"`+ c #00DA71",
" @ c #00F0A4",
".@ c #0CE8CC",
"+@ c #068E26",
"@@ c #0C6A04",
"#@ c #00BE00",
"$@ c #00B812",
"%@ c #0E5800",
"&@ c #0C7E18",
"*@ c #00C20F",
"=@ c #06942F",
"-@ c #00C20C",
";@ c #0A6C19",
">@ c #0B5402",
",@ c #00BC00",
"'@ c #00BC04",
")@ c #00B60F",
"!@ c #04A824",
"~@ c #00DC62",
"{@ c #00F4C9",
"]@ c #05F1A8",
"^@ c #00CC10",
"/@ c #0C5100",
"(@ c #079D30",
"_@ c #00BE09",
":@ c #00BE04",
"<@ c #00BE0D",
"[@ c #0A9232",
"}@ c #0B3300",
"|@ c #069C2E",
"1@ c #00BC09",
"2@ c #00BE1F",
"3@ c #078F31",
"4@ c #0D5200",
"5@ c #00CE0B",
"6@ c #00E07E",
"7@ c #3BB87D",
"8@ c #00F8D2",
"9@ c #049532",
"0@ c #105300",
"a@ c #00AF20",
"b@ c #00C020",
"c@ c #00BA0B",
"d@ c #04A722",
"e@ c #00BC06",
"f@ c #00BE1B",
"g@ c #06A02B",
"h@ c #0D5000",
"i@ c #01B520",
"j@ c #00DA76",
"k@ c #00F2AB",
"l@ c #05F1CD",
"m@ c #5CC858",
"n@ c #02FC46",
"o@ c #00ECAC",
"p@ c #068626",
"q@ c #105500",
"r@ c #049F27",
"s@ c #00BC07",
"t@ c #059531",
"u@ c #0E5000",
"v@ c #00D651",
"w@ c #00F6BF",
"x@ c #08E896",
"y@ c #7B8186",
"z@ c #00FC9E",
"A@ c #00FA9F",
"B@ c #00EA8A",
"C@ c #05A12D",
"D@ c #0C4D00",
"E@ c #0D6700",
"F@ c #09952E",
"G@ c #00AC20",
"H@ c #00B21B",
"I@ c #01A923",
"J@ c #0A8E22",
"K@ c #0C4F00",
"L@ c #00B120",
"M@ c #00E260",
"N@ c #00FAE5",
"O@ c #18CED0",
"P@ c #847C80",
"Q@ c #6FA487",
"R@ c #01FFCC",
"S@ c #00FAC2",
"T@ c #039C2C",
"U@ c #0A6E0D",
"V@ c #0E5200",
"W@ c #0D5800",
"X@ c #097513",
"Y@ c #04A423",
"Z@ c #00CC12",
"`@ c #00DA67",
" # c #00FAB0",
".# c #08E6CF",
"+# c #689687",
"@# c #857A80",
"## c #5AD449",
"$# c #01FFA8",
"%# c #00F4BD",
"&# c #00DA7B",
"*# c #00DA3E",
"=# c #00DA2B",
"-# c #00DA48",
";# c #00DC6D",
"># c #00EEAE",
",# c #00FECB",
"'# c #3EB9B0",
")# c #817E7E",
"!# c #897681",
"~# c #54D259",
"{# c #00FC8E",
"]# c #00FAC8",
"^# c #00F6B9",
"/# c #00E476",
"(# c #00E265",
"_# c #00F4DA",
":# c #4C9C99",
"<# c #87758B",
"[# c #8E7183",
"}# c #62C05F",
"|# c #3BBC7B",
"1# c #00FEE3",
"2# c #00F088",
"3# c #03F7D7",
"4# c #57CD56",
"5# c #5EBC5E",
"6# c #98896B",
"7# c #807F80",
"      . + @ # $ % & * = - * & & ; > , ' )       ",
"      ) ! ~ { * ] ^ / ( _ : / < [ * } | 1       ",
"    2 3 4 5 6 7 8 9 0 a b c d e f g h i j k ) l ",
". m n o - p q r s t u v w x y z A B / C D E F G ",
"H I J K L M N O P Q R S T U V W X Y Z `  ...+.@.",
"#.$.%.&.*.=.-.;.>.,.'.).!.~.{.].^./.(._.q :.<.[.",
"}...:.|.1.2.3.4.5.6.7.8.9.0.a.b.c.d.e.f.Z g.h.i.",
"j.k.l.B m.;.n.o.p.q.r.r.s.t.u.q.v.w.d.x.a y.z.k.",
"A.B.M C.D.U E.v.F.b =.G.G._.H.I.q.J.K.L.M.G.N.O.",
"P.Q.R.S.T.U.V.q.W.G.8 N.X.N.f d Y.Z.`. +.+a ++C ",
"@+#+$+%+&+*+=+F.-+;+>+,+'+)+/ !+z ~+{+]+^+(./+(+",
"5 / _+:+<+[+}+|+1+2+3+4+5+/ y.6+7+8+9+0+a+b+Z c+",
"d+e+f+g+h+i+j+k+l+m+0 $+9 e n+o+p+q+7.r+s+t+$+#+",
"- u+1.v+n.w+x x+y+D.I.Y z+A+-+B+C+D+E+F+G+H+I+c+",
"%.J+;+K+L+M+N+x O+P+Q+R+S+s.T+U+V+W+X+Y+Z+`+/+ @",
".@&.++s +@@@N+#@$@%@&@*@=@-@;@>@,@'@)@%@!@~@y.{@",
"]@h.4+1.^@/@(@_@:@<@7.[@}@|@N+#@1@2@3@4@5@6@/ O.",
"7@8@^ B b+9@0@a@b@_@W+c@d@e@:@,@f@g@h@i@j@y.k@l@",
"m@n@:.o@Z b+p@q@r@s@7.<@_@X+N+c@t@u@t@v@R.l.w@x@",
"y@z@A@ .B@_.-+C@D@E@F@G@H@I@J@V K@L@b M@e+h.N@O@",
"P@Q@R@S@&.4+$+j@v+T@U@s+V@W@X@Y@Z@`@!+N.B. #.#+#",
"  @###$#..%#e+y.N &#`+*#=#-#d ;#9 ++>#:.%.,#'#)#",
"    !#~#{#]#^#L |.y./#M@e (#/+M / &.@+{#_#:#<#. ",
"    m [#}#|#1#i @+z.,+J+g J+2#] h k.3#4#5#6#. 7#"};
