/* XPM */
static const char * midiclock_xpm[] = {
"22 22 35 1",
" 	c None",
".	c #C0C0C0",
"+	c #AEB4AE",
"@	c #728C72",
"#	c #326132",
"$	c #004000",
"%	c #094609",
"&	c #A3ACA3",
"*	c #B9BBB9",
"=	c #547854",
"-	c #0C480C",
";	c #598259",
">	c #B5C7B5",
",	c #FFFFFF",
"'	c #F1F4F1",
")	c #507550",
"!	c #0A470A",
"~	c #E4EAE4",
"{	c #779977",
"]	c #2E622E",
"^	c #084508",
"/	c #084408",
"(	c #83A283",
"_	c #9BB49B",
":	c #054205",
"<	c #2A502A",
"[	c #3C563C",
"}	c #00FF00",
"|	c #1A491A",
"1	c #044104",
"2	c #666666",
"3	c #006B00",
"4	c #5C625C",
"5	c #2C502C",
"6	c #626462",
"                      ",
"        ....          ",
"     ..+@#$%#@&       ",
"    .*=-;>,'>;-)      ",
"   .+!;~{]$^]{~;/     ",
"  .*!(_%$$$$$$%_(:    ",
"  .=;_$$$$,$$$$$_;<   ",
"  +-~%$,$$$$$,$$%~-   ",
" .@;{$$$$$$$$$$$${;[  ",
" .#>]$$$}}$$$$$$$]>|  ",
" .%'^,$$$}}$$$$,$^'12 ",
" .%'^$$$$$}3$$$$$^'12 ",
"  #>]$$$$$}3$$$$$]>|2 ",
"  @;{$$$$$}3$$$$${;[2 ",
"  &-~%$$$$}3$$$$%~-4  ",
"   );_$$$$}3$$$$_;52  ",
"    /(_%$$}3$$%_(:6   ",
"     :;~{]$^]{~;:42   ",
"      <-;>,'>;-562    ",
"        [|$1|[42      ",
"          2222        ",
"                      "};
