/* XPM */
static const char * patternstore_xpm[] = {
"16 16 8 1",
" 	c None",
".	c #808080",
"+	c #848400",
"@	c #4D4D4D",
"#	c #C6C6C6",
"$	c #000000",
"%	c #004000",
"&	c #00CF00",
"                ",
" .............. ",
" .+@########@#$ ",
" .+@########@@$ ",
" .+@########@+$ ",
" .+@########@+$ ",
" .+@########@+$ ",
" .+%%%%%%%%%%%$ ",
" .+%&&&%%&%%%%$ ",
" .+%%%%%&%%&&%$ ",
" .+%&&&%%%%%%%$ ",
" .+%%%%%%&%%%%$ ",
" .+%%%%%&%%%%%$ ",
" .++@@@@@@##@+$ ",
"  $$$$$$$$$$$$$ ",
"                "};
