/* XPM */
static const char * patternremove_xpm[] = {
"22 22 9 1",
" 	c None",
".	c #FF0000",
"+	c #C00000",
"@	c #660000",
"#	c #666666",
"$	c #3D3D3D",
"%	c #004C00",
"&	c #000000",
"*	c #ABE8AB",
"                      ",
"                      ",
"                      ",
"                      ",
"         .      .     ",
"        .+.    .+.    ",
"       .+++.  .+++@   ",
"        @+++..++@     ",
"          @++++@      ",
"           .++.       ",
"          .+++.       ",
"          ++@++.      ",
"   ######.++##++$##   ",
"  #%%%%%%++%%%%++%%&  ",
"  #%%%%%++%%%%%%+%%&  ",
"  #%%*****%%%%%%***&  ",
"  #%%%%%%%%%*%%%%%%&  ",
"  #%%%%***%%%%%*%%%&  ",
"  #%%%%%%%%%*%*%%%%&  ",
"   &&&&&&&&&&&&&&&&&  ",
"                      ",
"                      "};
