/* XPM */
static const char * play_xpm[] = {
"16 16 4 1",
" 	c None",
".	c #0066FF",
"+	c #0033CC",
"@	c #000099",
"                ",
"  .             ",
" .+..           ",
" .+++..         ",
" .+++++..       ",
" .+++++++..     ",
" .+++++++++..   ",
" .+++++++++++.  ",
" .+++++++++++@  ",
" .+++++++++@@   ",
" .+++++++@@     ",
" .+++++@@       ",
" .+++@@         ",
" .+@@           ",
"  @             ",
"                "};
