/* XPM */
static const char * qmidiarp2_xpm[] = {
"32 32 222 2",
"  	c None",
". 	c #B0DDB0",
"+ 	c #ACE4AC",
"@ 	c #ABE7AB",
"# 	c #ACE5AC",
"$ 	c #AFE0AF",
"% 	c #ABE8AB",
"& 	c #A6E1A6",
"* 	c #AEE0AE",
"= 	c #9AD89A",
"- 	c #498849",
"; 	c #2C6B2C",
"> 	c #3D7B3D",
", 	c #86C386",
"' 	c #A5E2A5",
") 	c #8EA88E",
"! 	c #A2E0A2",
"~ 	c #175717",
"{ 	c #124C12",
"] 	c #6D886D",
"^ 	c #8E9E8E",
"/ 	c #7C947C",
"( 	c #8EC98E",
"_ 	c #7AB77A",
": 	c #63A263",
"< 	c #094609",
"[ 	c #A8E5A8",
"} 	c #3D6B3D",
"| 	c #2E842E",
"1 	c #A1E0A1",
"2 	c #135C13",
"3 	c #378B37",
"4 	c #226322",
"5 	c #2B802B",
"6 	c #074407",
"7 	c #105614",
"8 	c #0E510D",
"9 	c #145F1A",
"0 	c #115A17",
"a 	c #327132",
"b 	c #0A500C",
"c 	c #166014",
"d 	c #165C16",
"e 	c #10540E",
"f 	c #105410",
"g 	c #10530F",
"h 	c #2C6C2C",
"i 	c #0B4D0B",
"j 	c #115911",
"k 	c #0E500D",
"l 	c #146013",
"m 	c #135F13",
"n 	c #0D4E11",
"o 	c #000000",
"p 	c #0A470B",
"q 	c #145D23",
"r 	c #0A4509",
"s 	c #0D4A0D",
"t 	c #0B470B",
"u 	c #0B470A",
"v 	c #9FDB9F",
"w 	c #3B7A3B",
"x 	c #094709",
"y 	c #104E10",
"z 	c #1F641F",
"A 	c #0E500E",
"B 	c #105110",
"C 	c #185318",
"D 	c #246324",
"E 	c #084508",
"F 	c #145D14",
"G 	c #0A450A",
"H 	c #0D4B0D",
"I 	c #0A4209",
"J 	c #145F25",
"K 	c #145C22",
"L 	c #0B480B",
"M 	c #83BF83",
"N 	c #609E60",
"O 	c #084708",
"P 	c #115011",
"Q 	c #105310",
"R 	c #3C793C",
"S 	c #084808",
"T 	c #084608",
"U 	c #0B450B",
"V 	c #0E4D0E",
"W 	c #0A4409",
"X 	c #145D25",
"Y 	c #0D4D0E",
"Z 	c #135C22",
"` 	c #4D894D",
" .	c #A0DEA0",
"..	c #175617",
"+.	c #135613",
"@.	c #87C487",
"#.	c #78B578",
"$.	c #004000",
"%.	c #0A470A",
"&.	c #0E5110",
"*.	c #0F4A0F",
"=.	c #8FCD8F",
"-.	c #97D497",
";.	c #508E50",
">.	c #428542",
",.	c #448544",
"'.	c #88C688",
").	c #A6E4A6",
"!.	c #1E5E1E",
"~.	c #034303",
"{.	c #0A480B",
"].	c #246E24",
"^.	c #8BC98B",
"/.	c #A4E1A4",
"(.	c #367536",
"_.	c #0A490A",
":.	c #0D480D",
"<.	c #0E4C0E",
"[.	c #428042",
"}.	c #7BB97B",
"|.	c #9BD89B",
"1.	c #A6E3A6",
"2.	c #1C5B1C",
"3.	c #064306",
"4.	c #166323",
"5.	c #115410",
"6.	c #115611",
"7.	c #115411",
"8.	c #115711",
"9.	c #196719",
"0.	c #135913",
"a.	c #0F520F",
"b.	c #0A4E0A",
"c.	c #064806",
"d.	c #034403",
"e.	c #5F9D5F",
"f.	c #6FAE6F",
"g.	c #105510",
"h.	c #196619",
"i.	c #145D22",
"j.	c #0B450A",
"k.	c #145F14",
"l.	c #73B273",
"m.	c #569456",
"n.	c #175C17",
"o.	c #195D19",
"p.	c #166025",
"q.	c #539153",
"r.	c #559455",
"s.	c #549354",
"t.	c #0F4D0F",
"u.	c #176217",
"v.	c #105010",
"w.	c #115311",
"x.	c #0E4E0E",
"y.	c #2B7B32",
"z.	c #115111",
"A.	c #226A22",
"B.	c #1A601A",
"C.	c #0C490C",
"D.	c #054305",
"E.	c #064506",
"F.	c #0C4A0C",
"G.	c #115913",
"H.	c #22702E",
"I.	c #104E0E",
"J.	c #165916",
"K.	c #135313",
"L.	c #1F631F",
"M.	c #257625",
"N.	c #0D4D0D",
"O.	c #1C6928",
"P.	c #0E4B0D",
"Q.	c #145714",
"R.	c #145614",
"S.	c #1D621D",
"T.	c #1D631D",
"U.	c #1F6D1F",
"V.	c #26762F",
"W.	c #094409",
"X.	c #1D641D",
"Y.	c #094209",
"Z.	c #297C29",
"`.	c #165716",
" +	c #1D601C",
".+	c #0D4D0B",
"++	c #0E510E",
"@+	c #0A440A",
"#+	c #0B4A0B",
"$+	c #1A661A",
"%+	c #0B4A0D",
"&+	c #297B34",
"*+	c #195C19",
"=+	c #1C601C",
"-+	c #226C22",
";+	c #0E4B0E",
">+	c #1C691C",
",+	c #236A23",
"'+	c #105011",
")+	c #25822E",
"!+	c #1F7825",
"~+	c #1D641C",
"{+	c #1C621C",
"]+	c #175917",
"^+	c #135113",
"/+	c #206920",
"(+	c #206720",
"_+	c #104D0E",
":+	c #145F26",
"<+	c #064204",
"[+	c #0E530E",
"}+	c #0E530D",
"|+	c #0E540E",
"1+	c #10560E",
"2+	c #0D510B",
"3+	c #0D530D",
"4+	c #105610",
"5+	c #0B500B",
"6+	c #135911",
"7+	c #207020",
"8+	c #0E560E",
"9+	c #0D510D",
"                                                                ",
"                                                                ",
"                                                                ",
"                                                                ",
"                                                                ",
"                                                                ",
"                        . + @ # $                               ",
"                    $ % % % % % % % &                           ",
"                  * % % = - ; > , % % ' )                       ",
"                  % % ! ~ { ] ^ / ( % % _                       ",
"                . % % : <           % % [ }                     ",
"| | | | | | | | 1 % % > 2 | | | | 3 % % % 4 5 | | | | | | | | | ",
"| 6 7 8 8 9 0 8 [ % % a b c d e f g % % % h i j k 8 l m k 8 n o ",
"| p q r s t u s v % % w x y z A B C % % % D E F G s t H t I J o ",
"| p K u s s L H M % % N O P z A Q R % % [ S T F U s L V L W X o ",
"| Y Z u s s L H ` % %  ...P z A +.@.% % #.$.%.F U s L V L W X o ",
"| &.Z u s s L H *.=.% % -.;.>.,.'.% % ).!.~.L F U s L V L W X o ",
"| {.K u s s L H G ].^.% % % % % % % /.(.$._.L F U s L V L W X o ",
"| p K G :.L t s G F <.[.}.|.[ % % 1.2.$.3.H t F G s L V t W X o ",
"| p 4.5.6.6.7.8.Q 9.0.a.b.c.d.e.% % f.g.Q 8.7.h.Q 6.7.j 7.Q i.o ",
"| p K j.s L L s G k.H G H P z A l.% % m.G H t F G L n.o.%.W X o ",
"| p p.u s V H H G k.V t H P z A +.q.r.s.t.H L u.t s v.w.t W X o ",
"| x.y.z.G A.B.L G k.V t H P z A Q C.D.E.D.F.H | s s L V L W X o ",
"| G.H.I.t B.J.s G k.V t V K.L.A Q s t H t H s M.L s L V L W X o ",
"| N.O.P.L Q.z.s G 2 V t R.S.T.A Q s t H t H s U.L s t H L W X o ",
"| L V.y W.X.n.%.Y.Z.V Y.v.`. +.+++L t s @+#+t $+%.G n.o.W.W X o ",
"| %+&+*+=+A.n.-+;+>+B ,+L '+)+!+~+z.@+{+]+-+^+2 P X./+T.(+_+:+o ",
"| <+[+}+|+|+}+1+2+3+2+4+5+6+7+8+|+9+5+|+}+1+9+3+9+e |+}+1+9+%.o ",
"o o o o o o o o o o o o o o o o o o o o o o o o o o o o o o o o ",
"                                                                ",
"                                                                ",
"                                                                "};
