/* XPM */
static const char * randomtoggle_xpm[] = {
"16 16 6 1",
" 	c None",
".	c #808080",
"+	c #C0C0C0",
"@	c #000000",
"#	c #45A1A2",
"$	c #666666",
"                ",
" .............. ",
" .++++++++++++@ ",
" .++++++++++++@ ",
" .++++++++#+++@ ",
" .+$$$$$$$#$$+@ ",
" .++++++++#+++@ ",
" .+++++#++++++@ ",
" .+$$$$#$$$$$+@ ",
" .+++++#++++++@ ",
" .++#+++++++++@ ",
" .+$#$$$$$$$$+@ ",
" .++#+++++++++@ ",
" .++++++++++++@ ",
"  @@@@@@@@@@@@@ ",
"                "};
