/* XPM */
static const char * seqrecord_xpm[] = {
"16 16 73 1",
" 	c None",
".	c #F80101",
"+	c #F90C0C",
"@	c #F92020",
"#	c #FA2020",
"$	c #F91E1E",
"%	c #F91717",
"&	c #F81110",
"*	c #FA2E2E",
"=	c #FA3E3E",
"-	c #FC5151",
";	c #FA4D4D",
">	c #FA3B3A",
",	c #FA2B2B",
"'	c #F90605",
")	c #F90F0F",
"!	c #F92E2E",
"~	c #FC5958",
"{	c #FD5C5C",
"]	c #FE6E6E",
"^	c #FD6C6C",
"/	c #FD4242",
"(	c #FB4444",
"_	c #FA2626",
":	c #FA2525",
"<	c #F93A3A",
"[	c #FE6362",
"}	c #FF9B9B",
"|	c #FFA3A3",
"1	c #FF9797",
"2	c #FF6969",
"3	c #F92121",
"4	c #F90B0A",
"5	c #FA302F",
"6	c #FC2627",
"7	c #FE7E7E",
"8	c #FFAEAE",
"9	c #FD4848",
"0	c #F82424",
"a	c #F91415",
"b	c #353535",
"c	c #FC2F2E",
"d	c #FE7472",
"e	c #FFA4A4",
"f	c #FF7070",
"g	c #FD2C2D",
"h	c #F81919",
"i	c #F91313",
"j	c #FA4443",
"k	c #FD5858",
"l	c #FF8A89",
"m	c #FF8F8F",
"n	c #FF5A5A",
"o	c #FE3735",
"p	c #FC2929",
"q	c #F92222",
"r	c #F80707",
"s	c #F90808",
"t	c #F92829",
"u	c #FC4E4E",
"v	c #FD4342",
"w	c #FE4A4A",
"x	c #FD2A2B",
"y	c #FC2F2F",
"z	c #F92E2D",
"A	c #FA1D1D",
"B	c #F92323",
"C	c #FA2D2D",
"D	c #F93737",
"E	c #F93333",
"F	c #F92423",
"G	c #F91414",
"H	c #F80B0B",
"                ",
"                ",
"     .....      ",
"    .+@#$%.     ",
"   .&*=-;>,'    ",
"  .)!~{]^/(_.   ",
"  .:<[}|12/34   ",
"  .567|88190ab  ",
"  .*cd|8efghib  ",
"  .@jklmnopqrb  ",
"   stuvwxyzAb   ",
"    )BCDEF@bb   ",
"     .iGiHbb    ",
"      bbbb      ",
"                ",
"                "};
