/* XPM */
static const char * settings_xpm[] = {
"22 22 140 2",
"   c None",
".  c #25B347",
"+  c #187A34",
"@  c #157530",
"#  c #1F9147",
"$  c #52FAB5",
"%  c #19D564",
"&  c #062A09",
"*  c #000000",
"=  c #000400",
"-  c #002207",
";  c #22C450",
">  c #16DE6F",
",  c #010200",
"'  c #010B02",
")  c #033D10",
"!  c #28F496",
"~  c #041E06",
"{  c #020000",
"]  c #021E06",
"^  c #20BC50",
"/  c #29993C",
"(  c #000200",
"_  c #010D02",
":  c #021805",
"<  c #032F0A",
"[  c #2BE96A",
"}  c #46F8AF",
"|  c #146E29",
"1  c #010902",
"2  c #022609",
"3  c #03390F",
"4  c #20DE56",
"5  c #16E874",
"6  c #16D86D",
"7  c #0E6422",
"8  c #021604",
"9  c #02340D",
"0  c #033F10",
"a  c #198339",
"b  c #1BEF84",
"c  c #15853A",
"d  c #17D96E",
"e  c #22883D",
"f  c #022407",
"g  c #044011",
"h  c #054B16",
"i  c #044E17",
"j  c #1BD963",
"k  c #18DC6B",
"l  c #1BC760",
"m  c #18883F",
"n  c #1C9249",
"o  c #1BED83",
"p  c #12742E",
"q  c #02320C",
"r  c #07571C",
"s  c #096323",
"t  c #0D6B27",
"u  c #117931",
"v  c #158339",
"w  c #19873D",
"x  c #1E9247",
"y  c #1CA650",
"z  c #47F7A6",
"A  c #0B6926",
"B  c #064011",
"C  c #044413",
"D  c #0C6C27",
"E  c #117730",
"F  c #148038",
"G  c #19893E",
"H  c #1D9F4E",
"I  c #15DF6F",
"J  c #1A8A3F",
"K  c #0E6E2B",
"L  c #1E9849",
"M  c #0D6D2A",
"N  c #157F38",
"O  c #198940",
"P  c #1DA14F",
"Q  c #55F9B6",
"R  c #10702B",
"S  c #044213",
"T  c #044A15",
"U  c #11752F",
"V  c #117530",
"W  c #17833A",
"X  c #1B8D43",
"Y  c #1E984C",
"Z  c #1ABA5A",
"`  c #15ED80",
" . c #0D6724",
".. c #0F712B",
"+. c #054915",
"@. c #054D16",
"#. c #085A1D",
"$. c #0E6E29",
"%. c #17D36B",
"&. c #4DF7A5",
"*. c #20F087",
"=. c #19ED82",
"-. c #2BF393",
";. c #54F8B4",
">. c #095F1F",
",. c #08581D",
"'. c #065018",
"). c #0B6725",
"!. c #18CA63",
"~. c #0C6222",
"{. c #054715",
"]. c #054112",
"^. c #0B6322",
"/. c #18C867",
"(. c #085C1E",
"_. c #074D17",
":. c #054713",
"<. c #0B6324",
"[. c #19C562",
"}. c #0A5A1D",
"|. c #044211",
"1. c #053D10",
"2. c #0A5C1E",
"3. c #18C260",
"4. c #177F37",
"5. c #03310B",
"6. c #0B6121",
"7. c #19BF5F",
"8. c #022A09",
"9. c #043E10",
"0. c #03370D",
"a. c #0A561C",
"b. c #71F9AE",
"c. c #1E8C42",
"d. c #02340C",
"e. c #10722C",
"f. c #18C461",
"g. c #1C8E44",
"h. c #127E36",
"i. c #1A8E43",
"                          . + @ # $         ",
"                      % & * = - ;           ",
"                    > * , ' ) !             ",
"                    ~ { ' ] ^               ",
"                  / ( _ : < [             } ",
"                  | 1 : 2 3 4           5 6 ",
"                  7 8 2 9 0 a         b c d ",
"                  e f 9 g h i # j k l m n o ",
"                  p q g h r s t u v w x y z ",
"                A B C h r s D E F G n H I   ",
"              t J K L r s M E N O n P 6 Q   ",
"            A R S T s U V W W X Y Z ` $     ",
"           ...+.@.#.+.$.%.&.*.=.-.;.        ",
"        s >.0 @.,.'.).!.                    ",
"      ~.@.{.@.#.].^./.                      ",
"    (.C 0 _.,.:.<.[.                        ",
"  }.3 |._.#.1.2.3.                          ",
"4.q |._.,.5.6.7.                            ",
"A 8.9.'.0.a.3.b.                            ",
"c.h 9.d.e.f.                                ",
"  g.h.i.[.                                  ",
"                                            "};
